<?xml version="1.0" encoding="UTF-8" standalone="yes"?>
<svg version="1.2" width="512.000000pt" height="512.000000pt" viewBox="0 0 512.000000 512.000000" preserveAspectRatio="xMidYMid meet" baseProfile="tiny-ps" xmlns="http://www.w3.org/2000/svg">
  <title>bimi-svg-tiny-12-ps</title>
  <g transform="translate(0.000000,512.000000) scale(0.100000,-0.100000)" fill="#000000" stroke="none">
    <path d="M240 5115 c0 -19 219 -351 330 -499 263 -352 490 -542 754 -631 41&#xA;-14 83 -25 93 -24 10 0 -18 13 -62 28 -185 64 -340 167 -515 341 -161 161&#xA;-300 343 -496 653 -74 117 -104 155 -104 132z"/>
    <path d="M1180 5117 c0 -2 16 -31 36 -63 28 -45 35 -52 29 -29 -8 38 -36 87&#xA;-53 93 -6 2 -12 2 -12 -1z"/>
    <path d="M1763 5017 c-98 -164 -206 -301 -363 -462 -82 -85 -121 -130 -90&#xA;-105 176 144 366 377 499 613 56 98 19 62 -46 -46z"/>
    <path d="M3060 5094 c-117 -40 -329 -146 -429 -214 -50 -34 -116 -90 -148&#xA;-124 -82 -87 -116 -162 -152 -341 -17 -82 -38 -172 -46 -199 -8 -27 -13 -51&#xA;-11 -54 7 -6 43 116 75 257 39 170 64 216 175 327 145 144 317 246 566 335 71&#xA;26 95 38 75 38 -16 0 -64 -11 -105 -25z"/>
    <path d="M4581 5108 c0 -9 -17 -67 -36 -130 -121 -385 -289 -700 -511 -957&#xA;-55 -63 -108 -126 -119 -140 -38 -49 59 34 136 117 139 151 230 288 333 502&#xA;100 208 216 557 203 608 -4 15 -5 15 -6 0z"/>
    <path d="M5004 5058 c-135 -142 -223 -264 -329 -458 -142 -259 -176 -305 -376&#xA;-515 -185 -194 -175 -194 17 1 190 192 333 361 484 574 123 171 205 276 273&#xA;346 27 29 48 57 45 64 -8 26 -234 -248 -388 -470 -51 -74 -99 -142 -108 -150&#xA;-19 -19 -19 -19 68 130 119 202 201 311 344 458 73 74 78 82 55 82 -19 0 -42&#xA;-17 -85 -62z"/>
    <path d="M269 5005 c140 -245 341 -521 496 -680 l107 -110 -94 105 c-165 185&#xA;-296 361 -440 590 -80 125 -111 169 -69 95z"/>
    <path d="M240 4897 c0 -10 54 -116 108 -212 231 -410 588 -769 918 -922 83&#xA;-38 226 -77 314 -86 30 -3 46 -4 35 -1 -11 3 -64 16 -117 30 -121 30 -200 61&#xA;-303 121 -328 189 -664 554 -897 973 -32 57 -58 101 -58 97z"/>
    <path d="M3359 4793 l-24 -28 28 24 c25 23 32 31 24 31 -2 0 -14 -12 -28 -27z"/>
    <path d="M3219 4643 c-52 -54 -114 -123 -138 -153 -40 -50 -40 -51 -6 -15 139&#xA;148 246 265 243 265 -3 0 -47 -44 -99 -97z"/>
    <path d="M5037 4540 c-72 -57 -363 -335 -755 -718 -262 -257 -36 -61 373 322&#xA;99 93 191 181 205 196 14 15 57 56 95 90 144 131 166 152 163 162 -2 6 -39&#xA;-18 -81 -52z"/>
    <path d="M4060 4402 c-89 -168 -232 -346 -428 -531 -159 -149 -224 -205 -458&#xA;-387 -170 -132 -225 -181 -176 -155 35 19 172 125 405 314 236 192 420 370&#xA;521 503 60 81 175 288 165 299 -3 2 -16 -17 -29 -43z"/>
    <path d="M3009 4403 c-13 -16 -12 -17 4 -4 9 7 17 15 17 17 0 8 -8 3 -21 -13z"/>
    <path d="M1229 4393 c-13 -16 -12 -17 4 -4 9 7 17 15 17 17 0 8 -8 3 -21 -13z"/>
    <path d="M5065 3933 c-31 -85 -176 -354 -267 -498 -111 -173 -159 -241 -265&#xA;-372 -79 -99 -93 -123 -49 -85 20 17 20 17 3 -13 -32 -53 68 63 160 188 121&#xA;162 209 305 301 487 72 142 148 327 139 337 -2 2 -12 -18 -22 -44z"/>
    <path d="M1448 3953 c7 -3 16 -2 19 1 4 3 -2 6 -13 5 -11 0 -14 -3 -6 -6z"/>
    <path d="M4686 3632 c-122 -218 -279 -433 -463 -638 -54 -60 -82 -96 -63 -80&#xA;100 82 293 313 403 481 66 101 182 313 176 320 -2 1 -26 -36 -53 -83z"/>
    <path d="M1865 3580 c-183 -165 -353 -273 -599 -381 -190 -84 -307 -122 -504&#xA;-164 -196 -41 -281 -64 -342 -94 -25 -12 -36 -18 -25 -15 119 37 240 68 346&#xA;89 228 46 388 101 599 204 57 28 106 48 111 45 4 -2 12 4 18 13 5 10 12 16 14&#xA;13 9 -10 201 117 291 191 82 69 207 189 196 189 -3 0 -50 -41 -105 -90z"/>
    <path d="M461 3610 c-3 -35 -53 -122 -92 -160 -53 -51 -104 -78 -240 -124 -57&#xA;-20 -110 -39 -118 -41 -8 -3 -12 -8 -9 -10 7 -7 263 72 308 95 79 40 172 180&#xA;157 237 -3 13 -5 14 -6 3z"/>
    <path d="M1204 3478 l-19 -23 23 19 c21 18 27 26 19 26 -2 0 -12 -10 -23 -22z"/>
    <path d="M3920 3427 c-54 -51 -158 -139 -407 -346 -67 -56 -126 -107 -130&#xA;-114 -7 -12 41 27 302 244 134 111 306 268 295 268 -3 0 -30 -23 -60 -52z"/>
    <path d="M1144 3435 c-17 -14 -71 -47 -120 -75 -49 -27 -85 -50 -80 -50 16 0&#xA;175 92 209 121 40 35 33 37 -9 4z"/>
    <path d="M3198 3392 c-176 -92 -328 -216 -410 -336 -61 -89 -108 -205 -192&#xA;-484 -76 -249 -142 -426 -210 -561 -34 -66 -133 -242 -164 -288 -8 -13 -12&#xA;-23 -9 -23 8 0 129 195 162 260 15 30 33 58 39 62 6 5 7 8 1 8 -6 0 -5 4 1 8&#xA;16 10 118 248 219 512 200 524 277 625 650 858 82 51 20 40 -87 -16z"/>
    <path d="M5063 3300 c-58 -44 -76 -51 -47 -18 38 44 -148 -106 -261 -211 -236&#xA;-218 -371 -449 -445 -765 -12 -48 -19 -90 -17 -93 3 -2 10 20 17 49 56 235&#xA;199 504 349 656 103 104 299 274 386 334 46 32 75 59 75 70 0 10 -1 18 -2 18&#xA;-2 0 -26 -18 -55 -40z m-118 -96 c-128 -118 -174 -151 -71 -50 61 58 115 106&#xA;120 106 6 -1 -16 -26 -49 -56z"/>
    <path d="M568 3193 c7 -3 16 -2 19 1 4 3 -2 6 -13 5 -11 0 -14 -3 -6 -6z"/>
    <path d="M498 3183 c6 -2 18 -2 25 0 6 3 1 5 -13 5 -14 0 -19 -2 -12 -5z"/>
    <path d="M423 3173 c9 -2 23 -2 30 0 6 3 -1 5 -18 5 -16 0 -22 -2 -12 -5z"/>
    <path d="M343 3163 c9 -2 25 -2 35 0 9 3 1 5 -18 5 -19 0 -27 -2 -17 -5z"/>
    <path d="M210 3149 c-141 -26 -210 -43 -210 -51 0 -6 8 -7 17 -4 9 4 73 18&#xA;142 31 69 13 135 26 146 28 37 8 -50 5 -95 -4z"/>
    <path d="M5049 2936 c-185 -152 -286 -291 -388 -531 -47 -113 -280 -721 -296&#xA;-775 -15 -50 9 -8 47 83 52 122 152 376 223 562 114 298 192 425 367 598 66&#xA;64 118 117 116 117 -2 0 -33 -24 -69 -54z"/>
    <path d="M328 2783 c-167 -112 -327 -238 -328 -256 0 -14 18 -4 73 41 39 32&#xA;134 105 210 161 121 91 146 111 134 111 -2 0 -42 -26 -89 -57z"/>
    <path d="M2408 2614 c-46 -75 -134 -213 -195 -308 -62 -94 -100 -156 -85 -137&#xA;66 81 157 217 243 361 51 85 101 170 111 188 11 17 17 32 14 32 -3 0 -42 -61&#xA;-88 -136z"/>
    <path d="M3709 2459 c-173 -99 -357 -220 -471 -312 -54 -42 -98 -80 -98 -83 0&#xA;-8 16 3 100 66 94 71 307 213 465 310 118 72 144 90 134 90 -3 0 -61 -32 -130&#xA;-71z"/>
    <path d="M5024 2194 c-93 -141 -196 -322 -254 -449 -63 -138 -160 -368 -157&#xA;-372 4 -3 167 331 167 342 0 19 187 351 257 457 46 71 83 135 81 144 -2 9 -41&#xA;-42 -94 -122z"/>
    <path d="M4281 2184 c0 -11 3 -14 6 -6 3 7 2 16 -1 19 -3 4 -6 -2 -5 -13z"/>
    <path d="M1375 1502 c-419 -300 -528 -400 -762 -690 -96 -119 -190 -252 -280&#xA;-397 l-51 -81 27 -2 c23 -1 34 11 90 101 252 400 548 724 924 1011 182 140&#xA;215 167 205 166 -2 0 -70 -49 -153 -108z"/>
    <path d="M2240 1459 c0 -11 4 -18 10 -14 5 3 7 12 3 20 -7 21 -13 19 -13 -6z"/>
    <path d="M4066 1443 c-12 -56 -17 -250 -7 -308 10 -59 10 -59 6 26 -3 47 0&#xA;134 5 194 10 106 9 143 -4 88z"/>
    <path d="M2256 1425 c-9 -26 -7 -32 5 -12 6 10 9 21 6 23 -2 3 -7 -2 -11 -11z"/>
    <path d="M2266 1393 c-6 -14 -5 -15 5 -6 7 7 10 15 7 18 -3 3 -9 -2 -12 -12z"/>
    <path d="M2275 1370 c-3 -5 -1 -10 4 -10 6 0 11 5 11 10 0 6 -2 10 -4 10 -3 0&#xA;-8 -4 -11 -10z"/>
    <path d="M2301 1310 c45 -80 505 -589 657 -728 209 -190 399 -293 468 -253 16&#xA;9 13 10 -21 11 -78 1 -223 79 -370 200 -154 127 -711 730 -731 792 -3 10 -10&#xA;18 -15 18 -6 0 0 -18 12 -40z"/>
    <path d="M1315 1161 c-33 -10 -82 -28 -109 -40 -53 -24 -194 -114 -241 -155&#xA;-16 -15 16 3 72 39 159 103 266 146 408 164 l70 8 -70 1 c-40 0 -96 -7 -130&#xA;-17z"/>
    <path d="M1528 1163 c7 -3 16 -2 19 1 4 3 -2 6 -13 5 -11 0 -14 -3 -6 -6z"/>
    <path d="M301 1017 c-51 -95 -152 -240 -241 -345 -34 -41 -59 -76 -57 -79 8&#xA;-8 156 175 220 272 57 87 132 224 125 230 -2 2 -23 -34 -47 -78z"/>
    <path d="M4072 1050 c0 -14 2 -19 5 -12 2 6 2 18 0 25 -3 6 -5 1 -5 -13z"/>
    <path d="M4770 978 c-79 -88 -248 -231 -359 -303 -111 -73 -361 -199 -544&#xA;-275 -126 -53 -162 -73 -77 -44 75 26 299 124 404 176 194 97 368 216 527 361&#xA;50 45 107 94 125 108 28 21 31 28 18 33 -29 11 -39 5 -94 -56z"/>
    <path d="M2056 983 c12 -49 60 -136 130 -233 99 -138 283 -378 296 -386 13 -8&#xA;-68 112 -186 276 -135 187 -197 280 -218 328 -22 48 -31 55 -22 15z"/>
    <path d="M4081 994 c0 -11 3 -14 6 -6 3 7 2 16 -1 19 -3 4 -6 -2 -5 -13z"/>
    <path d="M966 753 c16 -15 74 -66 128 -113 119 -102 291 -288 393 -425 92&#xA;-123 107 -138 58 -60 -105 167 -352 433 -520 559 -49 37 -76 55 -59 39z"/>
    <path d="M2507 389 c82 -106 192 -228 216 -240 12 -7 -14 26 -58 72 -44 46&#xA;-107 117 -139 157 -32 39 -60 72 -63 72 -2 0 17 -28 44 -61z"/>
    <path d="M4485 370 c-49 -27 -136 -68 -194 -91 -302 -120 -540 -102 -798 62&#xA;-24 15 -33 17 -39 7 -4 -7 -4 -10 0 -7 4 4 21 -6 38 -22 41 -37 136 -87 212&#xA;-111 91 -29 268 -35 376 -13 132 27 394 140 485 209 33 25 15 17 -80 -34z"/>
    <path d="M4820 361 c-270 -122 -675 -348 -643 -358 5 -2 52 23 104 55 121 76&#xA;324 186 514 278 169 82 185 97 25 25z"/>
    <path d="M890 351 c0 -38 206 -351 231 -351 13 0 11 4 -85 134 -44 59 -94 136&#xA;-113 170 -18 33 -33 55 -33 47z"/>
    <path d="M5000 213 c-243 -139 -354 -207 -343 -210 6 -2 78 36 160 85 81 48&#xA;183 107 226 131 42 23 77 47 77 52 0 12 11 17 -120 -58z"/>
  </g>
</svg>