<?xml version="1.0" encoding="UTF-8"?>
<svg version="1.1" xmlns="http://www.w3.org/2000/svg" width="640" height="640">
<path d="M0 0 C211.2 0 422.4 0 640 0 C640 211.2 640 422.4 640 640 C428.8 640 217.6 640 0 640 C0 428.8 0 217.6 0 0 Z " fill="#F1F1F0" transform="translate(0,0)"/>
<path d="M0 0 C1.90229904 2.85344856 2.42860369 4.44309093 3.1875 7.6875 C5.38115113 15.13722611 9.77834676 19.98806609 16.375 24 C27.91158775 29.15650513 41.26802823 25.96025465 52.84863281 22.61621094 C86.48298632 12.98240383 124.69557048 7.53272025 157.01953125 24.59375 C169.33380636 32.00589917 177.64386601 42.22697946 182.3125 55.86328125 C184.12266599 64.12216359 184.06564466 73.09063677 181 81 C175.52040771 79.17346924 173.53024209 72.92215659 171 68 C168.2297854 61.73187263 166.51563985 55.83222795 166 49 C164.68 48.67 163.36 48.34 162 48 C161.67 48.99 161.34 49.98 161 51 C157.29594443 49.49340661 155.36466449 47.34813463 152.8125 44.3125 C141.29067693 31.33410935 127.0061796 25.42641361 110 23 C108.00042694 22.95867702 105.99926774 22.94588448 104 23 C104.77601563 23.1959375 105.55203125 23.391875 106.3515625 23.59375 C119.73926443 27.30013049 133.70799508 33.73781811 141.23852539 46.02001953 C145.08540226 53.07828394 146.66298579 60.31094857 148.3125 68.125 C150.8612189 79.41816757 153.99612343 89.11495636 160 99 C160.53367187 99.90105469 161.06734375 100.80210937 161.6171875 101.73046875 C162.70325113 103.51296301 163.84217445 105.26326168 165 107 C164.49339844 105.85724609 164.49339844 105.85724609 163.9765625 104.69140625 C163.53054688 103.65886719 163.08453125 102.62632812 162.625 101.5625 C162.18414062 100.55316406 161.74328125 99.54382813 161.2890625 98.50390625 C158.62673259 91.2672095 157.63450294 84.37681964 157.6875 76.6875 C157.69096436 75.8637085 157.69442871 75.03991699 157.69799805 74.19116211 C157.8451074 65.88232842 158.53396962 57.59904508 164 51 C164.185625 52.43666016 164.185625 52.43666016 164.375 53.90234375 C166.01838507 65.0057636 169.8422361 74.09352719 175 84 C180.43223252 94.58660149 183.36298327 102.72132861 183.53417969 114.70507812 C183.64973647 119.13412314 183.86101733 121.61891495 187 125 C187 125.66 187 126.32 187 127 C189.93823196 128.52352768 192.92254092 129.78534783 196 131 C197.15221818 114.95429493 193.02483787 102.83393613 184.22265625 89.453125 C183 87 183 87 183.09765625 84.99609375 C184.2719104 82.39850124 185.76562838 80.16544206 187.375 77.8125 C193.63416646 68.05745412 195.26537882 59.67763884 194 48 C190.07510309 33.19005566 179.45758142 23.78679895 167.46875 15.1640625 C166.74171875 14.58785156 166.74171875 14.58785156 166 14 C166 13.67 166 13.34 166 13 C177.42750225 13.67220601 187.67519507 18.19846853 196 26 C197.03060547 26.95132813 197.03060547 26.95132813 198.08203125 27.921875 C207.92681255 37.93606936 212.89653996 51.64533095 213.3125 65.5 C213.25371195 70.53225676 212.42907942 74.46751547 210.60546875 79.125 C209.77926753 81.68355862 210.0654934 83.50798239 211 86 C211.33 86.33 211.66 86.66 212 87 C212.66 85.68 213.32 84.36 214 83 C215.98 83 217.96 83 220 83 C222.91921114 67.81539368 221.21004472 54.1425617 213 41 C222.63244046 45.44245591 228.91979508 54.02670542 233.671875 63.2421875 C235.2511683 67.71065855 235.49453456 71.42725317 235.4375 76.125 C235.43427734 76.95741211 235.43105469 77.78982422 235.42773438 78.64746094 C235.28658776 84.95768827 234.04625607 90.36820696 231.88671875 96.31640625 C230.75054605 99.75495534 230.76137771 102.42066564 231 106 C230.67 106.66 230.34 107.32 230 108 C230.99 108 231.98 108 233 108 C233.33 107.34 233.66 106.68 234 106 C234.36996094 105.39027344 234.73992187 104.78054687 235.12109375 104.15234375 C240.52258137 95.0643809 241.32927912 86.43147471 242 76 C242.66 76 243.32 76 244 76 C248.39499358 83.41655167 249.06975993 90.50703639 248 99 C246.0491219 105.98165312 242.86714971 111.82674068 238.234375 117.37890625 C236.78809749 119.0971565 236.78809749 119.0971565 236 122 C233.69 122 231.38 122 229 122 C229 122.66 229 123.32 229 124 C229.94875 123.79375 230.8975 123.5875 231.875 123.375 C233.421875 123.189375 233.421875 123.189375 235 123 C235.66 123.66 236.32 124.32 237 125 C236.34 125 235.68 125 235 125 C235 125.66 235 126.32 235 127 C235.66 127.33 236.32 127.66 237 128 C236.34 128 235.68 128 235 128 C237.17477789 131.08093534 239.37171866 133.36108279 242.4375 135.5 C246.50228383 138.45135336 250.05663892 141.79240808 253.625 145.3125 C254.16310303 145.83328125 254.70120605 146.3540625 255.25561523 146.890625 C262.43539849 154.07809657 266.50393592 161.39815199 269.25 171.125 C271.38207246 178.07868587 273.79967067 184.04492263 278 190 C278.4242627 190.60312012 278.84852539 191.20624023 279.28564453 191.82763672 C280.11999474 192.9990657 280.95795178 194.16793557 281.79980469 195.33398438 C290.44333066 207.3322393 291.79230591 217.71136357 289.515625 232.05078125 C287.84689564 238.4306185 284.586473 244.49541331 281 250 C280.34 250.33 279.68 250.66 279 251 C279.00112793 250.39639648 279.00225586 249.79279297 279.00341797 249.17089844 C279.05224421 232.15291593 279.05224421 232.15291593 272 217 C271.44441406 216.20851563 270.88882812 215.41703125 270.31640625 214.6015625 C261.85452974 203.93777834 247.27734334 195.57014715 233.89404297 193.70678711 C226.55706226 192.9271444 219.24964828 192.74615309 211.875 192.6875 C210.65167969 192.65849609 209.42835938 192.62949219 208.16796875 192.59960938 C200.41390197 192.54512134 194.37174064 192.90834879 188.45288086 198.44799805 C184.28017158 203.10575272 183.62146073 207.4003224 183.73046875 213.4453125 C184.81606367 223.73486433 190.40754914 232.42435838 198.3203125 238.8984375 C201.80603593 241.37543068 205.38432636 243.63358376 209.05859375 245.8203125 C218.22219763 251.47177357 224.32885974 258.36467656 227 269 C228.88273336 288.81184622 225.81647019 306.65352678 214 323 C212.07899585 324.81483874 210.10235553 326.38809441 208 328 C208.17015625 327.47535156 208.3403125 326.95070313 208.515625 326.41015625 C209.38890085 323.61846058 210.20037304 320.81375011 211 318 C211.35964844 316.74058594 211.71929687 315.48117187 212.08984375 314.18359375 C214.13512525 306.58889608 215.38244619 299.31923421 215.4375 291.4375 C215.44740967 290.71240234 215.45731934 289.98730469 215.4675293 289.24023438 C215.35187812 282.01827612 213.05499818 276.04324547 208.9375 270.125 C208.43089844 269.38507813 207.92429687 268.64515625 207.40234375 267.8828125 C205.99508931 265.89861271 205.99508931 265.89861271 204 264 C204.144375 265.06992187 204.28875 266.13984375 204.4375 267.2421875 C205.66602322 277.06490829 206.21629961 286.78660606 206.25 296.6875 C206.26353516 298.33371338 206.26353516 298.33371338 206.27734375 300.01318359 C206.25506259 306.07087314 205.66126283 311.18558008 204 317 C203.63206679 319.30724782 203.29730766 321.62009293 203 323.9375 C202.26142773 329.38300507 201.2889933 334.65988491 200 340 C197.54176828 336.31265242 196.98757384 333.30300029 196 329 C191.75600905 332.88086873 188.92453757 336.96818633 186.0625 341.9375 C185.4128125 343.05487549 185.4128125 343.05487549 184.75 344.19482422 C179.00057731 354.27133107 173.45492643 365.23829698 172.375 376.9375 C172.30023438 377.70964844 172.22546875 378.48179687 172.1484375 379.27734375 C172.07496094 380.13005859 172.07496094 380.13005859 172 381 C171.34 381 170.68 381 170 381 C167.87589618 373.78748747 167.12937187 366.45855703 166.31152344 359.01242065 C165.88854226 355.16956406 165.44711848 351.3288502 165.00390625 347.48828125 C164.87400803 346.36124535 164.87400803 346.36124535 164.7414856 345.21144104 C164.02046644 339.0268733 163.13502144 332.87943376 162.14477539 326.73242188 C161.30955866 321.41485664 160.64274988 316.08577104 160.03125 310.73828125 C159.90357239 309.63364784 159.90357239 309.63364784 159.77331543 308.50669861 C159.34702928 304.81164241 158.93151919 301.1158996 158.53320312 297.41772461 C157.76413736 290.55024216 156.88437383 284.32595623 154 278 C150.94499833 278.59302654 150.94499833 278.59302654 148.578125 280.50390625 C143.31125126 288.66756054 138.0810146 297.75695619 135 307 C134.34 307 133.68 307 133 307 C132.35089846 305.41800369 131.70585306 303.83434276 131.0625 302.25 C130.52302734 300.92742187 130.52302734 300.92742187 129.97265625 299.578125 C123.02887924 281.17293294 130.51040224 260.01461714 138 243 C140.19945977 238.26352373 142.55826635 233.61628671 145 229 C139.66217717 233.34367244 134.94720982 238.11474489 130.36572266 243.234375 C127.40577792 246.52388269 124.34172152 249.64802398 121.15258789 252.71533203 C114.18839054 259.43680363 109.82560067 265.09279191 109 275 C108.34 275 107.68 275 107 275 C102.96534398 266.55604133 101.48786101 259.0310407 101.4375 249.6875 C101.42332031 248.76952637 101.40914062 247.85155273 101.39453125 246.90576172 C101.48787846 240.43796705 102.91177394 235.65707753 106 230 C106.36440186 229.33218506 106.72880371 228.66437012 107.10424805 227.97631836 C117.58916566 209.58608761 133.68544827 191.50755173 154 184 C148.54467567 184.5403859 144.49227044 186.49878124 139.75 189.0625 C138.99855713 189.465896 138.24711426 189.86929199 137.47290039 190.28491211 C131.43837855 193.60419171 126.08439074 197.33465246 121 202 C120.29617188 202.63550781 119.59234375 203.27101563 118.8671875 203.92578125 C114.36085331 208.2008017 110.80246162 212.8414297 107.34765625 217.99609375 C106 220 106 220 105 221 C100.10732254 221.55598608 96.58429183 220.605668 91.9375 219 C83.40214834 216.20750923 74.75667618 215.99053886 66 218 C68.26497655 207.93343754 77.22112736 201.9154925 85 196 C86.39241072 194.92771107 87.78429806 193.8547423 89.17578125 192.78125 C95.71410543 187.75018758 102.26104029 182.76054952 109 178 C107.845 178.3196875 106.69 178.639375 105.5 178.96875 C93.35270656 181.97888774 82.68753071 180.30548206 71.390625 175.41015625 C61.37353037 171.24406044 53.6844832 173.03355995 44 177 C42.33333333 177.66666667 40.66666667 178.33333333 39 179 C42.02934016 166.7960868 49.48256031 159.49522965 60 153 C72.52036527 146.19160928 84.66791652 144.53016135 98.6875 144.3125 C100.17906488 144.27924597 101.67060259 144.24474918 103.16210938 144.20898438 C106.7745398 144.12502084 110.3870447 144.0577843 114 144 C114 143.34 114 142.68 114 142 C113.34 142.061875 112.68 142.12375 112 142.1875 C108.82768949 141.98923059 106.40240074 141.07628114 103.4609375 139.93359375 C87.11280955 133.73168489 70.51808217 132.22798821 54 139 C41.31017959 144.82002712 32.46740731 154.14330886 27 167 C23.83576613 175.59770664 23.06150441 184.20732184 22.27148438 193.27929688 C21.09204727 205.10856248 18.05901329 215.5448127 9.08203125 223.75390625 C2.45336371 229.07479026 -3.65672393 230.29274653 -12 230 C-12 229.34 -12 228.68 -12 228 C-10.80375 227.7525 -9.6075 227.505 -8.375 227.25 C-2.75974299 225.81146243 1.2903519 223.55857764 4.3125 218.5 C8.55609689 209.69846572 7.57796929 199.82043321 6 190.375 C2.89959854 170.37965725 5.36524141 152.48036106 16 135 C18.75410144 131.37905009 21.73766574 128.16537677 25 125 C25.61359375 124.37738281 26.2271875 123.75476563 26.859375 123.11328125 C41.46492186 109.22552836 61.72262392 102.6282863 81.5 102.6875 C83.11455078 102.66333008 83.11455078 102.66333008 84.76171875 102.63867188 C99.59441537 102.62963856 109.33124525 109.16166816 120.65234375 118.22265625 C124.90583595 121.44285417 129.45874183 124.20733844 134 127 C132.86523269 125.86523269 131.72933591 124.7315852 130.58984375 123.6015625 C129.50383484 122.50754861 128.43406015 121.39723997 127.37890625 120.2734375 C111.42693223 103.60105175 91.26535593 90.10813967 67.62597656 89.56298828 C50.04186365 89.56000286 32.14760843 92.07725426 16.9375 101.5 C1.75834668 110.86186791 -14.13292982 113.54233365 -31.625 109.875 C-37.13426503 108.24918892 -41.5085707 105.52590131 -46 102 C-46.83273438 101.41605469 -47.66546875 100.83210938 -48.5234375 100.23046875 C-54.81134471 94.56738512 -58.64847771 84.2593029 -60 76 C-60.125 73 -60.125 73 -60 71 C-57.41089164 73.38994618 -55.33631012 75.88622412 -53.3125 78.75 C-48.21176643 85.62378454 -41.7571911 92.51868409 -33 94 C-14.33834316 95.56445027 -2.48617635 87.8391098 12.125 77.375 C23.97797012 69.00125992 36.22030166 63.41424863 50 59 C51.18851562 58.61585937 52.37703125 58.23171875 53.6015625 57.8359375 C60.08731706 56.3063844 66.86928565 56.51375824 73.5 56.5 C74.21520813 56.4976535 74.93041626 56.49530701 75.66729736 56.4928894 C86.80199788 56.50804397 96.15550502 57.3531577 106 63 C106.97453125 63.54140625 107.9490625 64.0828125 108.953125 64.640625 C118.80165372 70.80315467 122.71151854 80.10985108 126.75 90.625 C133.12056956 106.49262797 141.76324537 122.93125646 157.6484375 131.0703125 C161.6494146 132.65209415 165.75204597 133.40581854 170 134 C169.0409375 133.071875 169.0409375 133.071875 168.0625 132.125 C164.66172329 128.73383 161.51546385 125.118104 158.32421875 121.53125 C156.28833489 119.3140185 154.18935143 117.2501225 152 115.1875 C141.63800499 104.84602379 135.96138805 92.12968288 130 79 C122.56857499 62.7046324 113.83967476 52.98432724 97.0625 45.6875 C95.38764863 45.08838783 93.69885012 44.52722935 92 44 C91.04738281 43.70222656 90.09476563 43.40445313 89.11328125 43.09765625 C76.08049478 39.68617897 61.22862129 39.65913286 48 42 C34.07876571 43.00517968 20.62985878 42.25938735 8.9375 33.76953125 C3.0448895 28.38777206 -0.71052913 21.45000128 -1.23046875 13.45703125 C-1.21628906 12.25433594 -1.20210937 11.05164063 -1.1875 9.8125 C-1.18105469 8.60207031 -1.17460937 7.39164062 -1.16796875 6.14453125 C-1 3 -1 3 0 0 Z " fill="#040404" transform="translate(150,69)"/>
<path d="M0 0 C9.63244046 4.44245591 15.91979508 13.02670542 20.671875 22.2421875 C22.2511683 26.71065855 22.49453456 30.42725317 22.4375 35.125 C22.43427734 35.95741211 22.43105469 36.78982422 22.42773438 37.64746094 C22.28658776 43.95768827 21.04625607 49.36820696 18.88671875 55.31640625 C17.75054605 58.75495534 17.76137771 61.42066564 18 65 C17.67 65.66 17.34 66.32 17 67 C17.99 67 18.98 67 20 67 C20.33 66.34 20.66 65.68 21 65 C21.36996094 64.39027344 21.73992187 63.78054687 22.12109375 63.15234375 C27.52258137 54.0643809 28.32927912 45.43147471 29 35 C29.66 35 30.32 35 31 35 C35.39499358 42.41655167 36.06975993 49.50703639 35 58 C33.0491219 64.98165312 29.86714971 70.82674068 25.234375 76.37890625 C23.78809749 78.0971565 23.78809749 78.0971565 23 81 C20.69 81 18.38 81 16 81 C16 81.66 16 82.32 16 83 C17.423125 82.690625 17.423125 82.690625 18.875 82.375 C20.421875 82.189375 20.421875 82.189375 22 82 C22.99 82.99 22.99 82.99 24 84 C23.34 84 22.68 84 22 84 C22 84.66 22 85.32 22 86 C22.99 86.495 22.99 86.495 24 87 C23.34 87 22.68 87 22 87 C21.67 87.66 21.34 88.32 21 89 C17.87215767 86.75597684 14.75801536 84.49412676 11.65576172 82.21484375 C10.55524765 81.40738902 9.45271384 80.60267963 8.34814453 79.80078125 C-7.02204558 68.60269403 -7.02204558 68.60269403 -12 61 C-12.82996051 54.47888173 -8.24444885 48.48678964 -5 43 C-4.34 43 -3.68 43 -3 43 C-2.34 43.99 -1.68 44.98 -1 46 C-0.34 44.68 0.32 43.36 1 42 C2.98 42 4.96 42 7 42 C9.91921114 26.81539368 8.21004472 13.1425617 0 0 Z " fill="#EAEAEA" transform="translate(363,110)"/>
<path d="M0 0 C5.71415512 -0.17296209 10.70801376 0.32186949 16.25 1.6875 C16.98798828 1.86756592 17.72597656 2.04763184 18.48632812 2.2331543 C33.51205691 6.05322718 46.41677585 13.40198186 55.6015625 26.23828125 C56.06304687 26.81964844 56.52453125 27.40101562 57 28 C59.12364481 28.22609337 59.12364481 28.22609337 60.625 26.5 C61.07875 26.005 61.5325 25.51 62 25 C65 27 65 27 65.51953125 29.109375 C65.61621094 29.98078125 65.71289062 30.8521875 65.8125 31.75 C67.30042913 41.24023705 71.34753354 50.25360365 77 58 C77.66 58.33 78.32 58.66 79 59 C79.66 52.73 80.32 46.46 81 40 C81.33 40 81.66 40 82 40 C82.495 43.96 82.495 43.96 83 48 C83.99 47.67 84.98 47.34 86 47 C86 47.99 86 48.98 86 50 C87.32 49.67 88.64 49.34 90 49 C89.23302204 50.41875765 88.46123222 51.83491452 87.6875 53.25 C87.04361328 54.43335938 87.04361328 54.43335938 86.38671875 55.640625 C85 58 85 58 83.26953125 59.984375 C81.77947438 61.93332373 81.77947438 61.93332373 82.07421875 64.33984375 C83.23950022 67.68818417 84.96314889 70.56189444 86.8125 73.5625 C93.01545098 84.10613209 96.08852288 93.59797703 95 106 C94.505 107.485 94.505 107.485 94 109 C89.13634454 108.58311525 87.17061868 106.58780535 84 103 C83.46246094 102.45472656 82.92492187 101.90945312 82.37109375 101.34765625 C80.37818467 97.93529626 80.68709458 94.58933889 80.6875 90.75 C80.28461883 77.2268498 74.85016999 66.37134008 68.76489258 54.52270508 C64.85370663 46.88023441 62.68414942 39.38112003 61 31 C60.525625 32.19625 60.05125 33.3925 59.5625 34.625 C59.29566406 35.29789063 59.02882813 35.97078125 58.75390625 36.6640625 C54.66838868 49.32281641 55.58175163 66.44246966 61.125 78.43359375 C62.07875135 80.2914219 63.03870091 82.14606604 64 84 C63.67 84.66 63.34 85.32 63 86 C52.33259938 72.73242048 47.41118081 57.71609207 44.16577148 41.2109375 C41.77864723 29.46560078 37.49435492 19.70556017 27.28222656 12.84619141 C18.6084317 7.35873404 9.99664561 3.44780877 0 1 C0 0.67 0 0.34 0 0 Z " fill="#ECECEC" transform="translate(252,91)"/>
<path d="M0 0 C1.32 0 2.64 0 4 0 C7.3447955 7.83450033 10.41504618 15.71806334 13.25 23.75 C16.40202571 32.58384342 19.59682972 41.39961755 22.875 50.1875 C23.24399414 51.18426758 23.61298828 52.18103516 23.99316406 53.20800781 C27.36954836 63.25614531 27.36954836 63.25614531 35 70 C35 70.66 35 71.32 35 72 C27.08 72 19.16 72 11 72 C11.495 70.515 11.495 70.515 12 69 C14.0625 68.3125 14.0625 68.3125 16 68 C15.54212017 65.85406985 15.08367066 63.70826126 14.625 61.5625 C14.36976563 60.36753906 14.11453125 59.17257812 13.8515625 57.94140625 C12.91870894 53.62374919 11.95824296 49.31209331 11 45 C3.08 45 -4.84 45 -13 45 C-13.33 47.31 -13.66 49.62 -14 52 C-14.7150503 54.55639745 -15.53845854 57.05299064 -16.37890625 59.5703125 C-17.03577997 62.13996943 -17.10808243 64.35902923 -17 67 C-15.02 67.66 -13.04 68.32 -11 69 C-11 69.99 -11 70.98 -11 72 C-18.26 72 -25.52 72 -33 72 C-33 71.01 -33 70.02 -33 69 C-32.236875 68.7525 -31.47375 68.505 -30.6875 68.25 C-25.74710341 65.95214112 -24.40092279 61.89050026 -22.58203125 56.96875 C-22.13625732 55.77515869 -21.6904834 54.58156738 -21.23120117 53.35180664 C-20.99968353 52.72307648 -20.76816589 52.09434631 -20.52963257 51.44656372 C-19.31731025 48.15587139 -18.08279608 44.87349605 -16.8515625 41.58984375 C-16.48513893 40.60992714 -16.48513893 40.60992714 -16.11131287 39.61021423 C-11.11045356 26.25623435 -5.71064594 13.0652657 0 0 Z " fill="#0C0C0D" transform="translate(159,454)"/>
<path d="M0 0 C3.34259266 2.58431932 4.70850816 4.40667328 6.6875 8.3046875 C7.1825 14.7396875 7.1825 14.7396875 7.6875 21.3046875 C-3.8625 21.3046875 -15.4125 21.3046875 -27.3125 21.3046875 C-25.33719532 33.34049611 -25.33719532 33.34049611 -17.625 41.2421875 C-12.38941003 42.92152768 -7.2107745 43.43369494 -1.99609375 41.40234375 C-0.64341369 40.70233805 0.69079133 39.96450398 1.99609375 39.1796875 C3.6875 38.3046875 3.6875 38.3046875 6.6875 38.3046875 C3.65356409 44.05319764 -0.154148 47.27513161 -6.3125 49.3046875 C-14.16641525 50.11166087 -21.89181556 50.39334183 -28.3125 45.3046875 C-33.46283447 40.54327989 -36.93520149 35.35016592 -37.59375 28.2890625 C-37.88483953 17.85835429 -36.32644302 10.63629453 -29.08203125 2.96484375 C-21.54718123 -4.10427603 -8.90955859 -5.38285831 0 0 Z " fill="#121212" transform="translate(342.3125,477.6953125)"/>
<path d="M0 0 C0.01458252 1.11971191 0.02916504 2.23942383 0.04418945 3.39306641 C0.10234886 7.56428274 0.17958023 11.73496919 0.26245117 15.90576172 C0.29561773 17.70775729 0.32367525 19.50985467 0.34643555 21.31201172 C0.38013432 23.90896823 0.43245649 26.50499866 0.48828125 29.1015625 C0.49467117 29.9017984 0.5010611 30.7020343 0.50764465 31.52651978 C0.63402007 36.38086621 1.32464112 39.7907687 4 44 C7.68387707 45.84193854 11.97006153 45.36231308 16 45 C18.92798943 43.84587664 18.92798943 43.84587664 21 42 C21.53149658 41.62061279 22.06299316 41.24122559 22.6105957 40.8503418 C24.73460144 38.02169314 24.36971228 35.09954472 24.29296875 31.70703125 C24.28660149 30.64798836 24.28660149 30.64798836 24.28010559 29.56755066 C24.26333034 27.31547697 24.22568243 25.06430258 24.1875 22.8125 C24.17245157 21.28451815 24.15876344 19.75652224 24.14648438 18.22851562 C24.11343089 14.48533128 24.06165832 10.74281804 24 7 C22.02 6.01 20.04 5.02 18 4 C18 3.34 18 2.68 18 2 C23.28 1.34 28.56 0.68 34 0 C34 14.85 34 29.7 34 45 C36.31 45.66 38.62 46.32 41 47 C41 47.66 41 48.32 41 49 C39.23050388 49.50471197 37.45934777 50.00360685 35.6875 50.5 C34.70136719 50.7784375 33.71523438 51.056875 32.69921875 51.34375 C30 52 30 52 27 52 C25.5216774 49.04335481 25.93967217 46.25770263 26 43 C25.46890625 43.48210938 24.9378125 43.96421875 24.390625 44.4609375 C23.68421875 45.09257813 22.9778125 45.72421875 22.25 46.375 C21.55390625 47.00148438 20.8578125 47.62796875 20.140625 48.2734375 C14.26812296 53.01001762 8.32291651 52.71131692 1 52 C-3.73623281 50.00579671 -5.91743059 47.32541565 -8.15063477 42.71972656 C-10.05525452 36.62100164 -9.6489666 29.96549656 -9.6875 23.625 C-9.71660141 21.41666009 -9.75110124 19.20852421 -9.78999329 17.00033569 C-9.82259741 15.01289391 -9.84075406 13.0252307 -9.8581543 11.03759766 C-9.790728 8.08103942 -9.790728 8.08103942 -11 6 C-13.01669827 4.86649466 -13.01669827 4.86649466 -15 4 C-15 3.34 -15 2.68 -15 2 C-13.2508503 1.66223316 -11.50063855 1.32996329 -9.75 1 C-8.77546875 0.814375 -7.8009375 0.62875 -6.796875 0.4375 C-4 0 -4 0 0 0 Z " fill="#0C0C0C" transform="translate(406,475)"/>
<path d="M0 0 C0.01401855 1.63412842 0.01401855 1.63412842 0.02832031 3.30126953 C0.06832981 7.36076054 0.13411829 11.41950241 0.20751953 15.47851562 C0.23566584 17.23199812 0.25691185 18.98560599 0.27099609 20.73925781 C0.29251427 23.26692599 0.33920702 25.79309684 0.390625 28.3203125 C0.39185364 29.09867462 0.39308228 29.87703674 0.39434814 30.6789856 C0.53253597 35.86709865 1.58405235 38.87512732 5 43 C8.71013678 44.85506839 12.95092823 44.45334699 17 44 C21.10280726 41.94859637 23.38797406 40.27761628 25 36 C25.23030907 33.61649515 25.35519654 31.22200729 25.4140625 28.828125 C25.43342865 28.1457074 25.4527948 27.46328979 25.4727478 26.76019287 C25.53231098 24.59025392 25.57883446 22.42026123 25.625 20.25 C25.66320131 18.77471703 25.7022543 17.29945585 25.7421875 15.82421875 C25.83799235 12.21634582 25.92210916 8.60830917 26 5 C23.69 4.34 21.38 3.68 19 3 C19 2.34 19 1.68 19 1 C26.92 0.505 26.92 0.505 35 0 C35 14.85 35 29.7 35 45 C37.31 45.33 39.62 45.66 42 46 C42 46.66 42 47.32 42 48 C36.75614911 49.7479503 32.52677733 50.19392201 27 50 C26.34 47.69 25.68 45.38 25 43 C24.55269531 43.40992188 24.10539062 43.81984375 23.64453125 44.2421875 C23.03996094 44.78101563 22.43539062 45.31984375 21.8125 45.875 C21.22082031 46.40867187 20.62914062 46.94234375 20.01953125 47.4921875 C15.01634029 51.22764536 10.02980337 51.55359416 3.94921875 51.44140625 C0.128917 50.86962599 -1.82552376 49.5989357 -4.59765625 46.99609375 C-8.37146199 41.62446497 -9.45140242 36.57023035 -9.51171875 30.09765625 C-9.52966995 29.3750914 -9.54762115 28.65252655 -9.56611633 27.9080658 C-9.61980006 25.62626789 -9.65397763 23.34467394 -9.6875 21.0625 C-9.72071036 19.50452915 -9.75520341 17.94658509 -9.79101562 16.38867188 C-9.8755012 12.5925962 -9.9425098 8.79657656 -10 5 C-12.475 4.01 -12.475 4.01 -15 3 C-15 2.34 -15 1.68 -15 1 C-9.92600581 0.28786046 -5.13495767 -0.02096971 0 0 Z " fill="#0D0D0D" transform="translate(211,476)"/>
<path d="M0 0 C9.26967085 2.60709493 15.19268257 11.2214113 20 19 C22.17315661 23.23910506 24.09782318 27.57113957 26 31.9375 C30.86211118 43.05925431 36.08200088 53.3863421 44.5 62.25 C45.20600342 62.99938843 45.20600342 62.99938843 45.92626953 63.76391602 C50.45692109 68.54989206 55.11329498 73.19532563 59.875 77.75 C62 80 62 80 63 83 C52.46711061 82.95517919 45.70528662 78.74079534 38.0625 71.75 C28.72970303 61.93371434 22.50764317 49.99397881 17.6875 37.4375 C12.52969862 24.01934577 7.65538293 18.04578729 -5 11 C-5.99 10.34 -6.98 9.68 -8 9 C-7.40832031 9.08378906 -6.81664062 9.16757813 -6.20703125 9.25390625 C-1.90060543 9.80889424 1.75552644 10.23226652 6 9 C5.195625 8.2575 4.39125 7.515 3.5625 6.75 C1.23011409 4.24695171 0.36465606 3.2819045 0 0 Z " fill="#E9E9E9" transform="translate(257,120)"/>
<path d="M0 0 C9.63244046 4.44245591 15.91979508 13.02670542 20.671875 22.2421875 C22.25073575 26.70943469 22.49735198 30.42804447 22.4375 35.125 C22.42992676 35.9603125 22.42235352 36.795625 22.41455078 37.65625 C22.11509359 49.02250849 18.52670932 59.63417213 12 69 C9.8125 70.8046875 9.8125 70.8046875 8 72 C4.29271782 68.81541557 1.43264528 66.25239423 -0.1875 61.5625 C0.00917323 57.8257086 1.02454497 55.64098283 2.80859375 52.40234375 C9.04980284 39.81761067 10.22095876 24.87780184 6 11.484375 C4.37049348 7.43606973 2.3093803 3.69683408 0 0 Z " fill="#080808" transform="translate(363,110)"/>
<path d="M0 0 C0.01030746 0.88505219 0.02061493 1.77010437 0.03123474 2.68197632 C0.12909267 11.01075816 0.23159027 19.33946707 0.33933926 27.66812706 C0.39457322 31.95027441 0.44799398 36.23242858 0.49731445 40.51464844 C0.54495103 44.64493488 0.59729358 48.77513701 0.65294075 52.90532303 C0.67336751 54.48340387 0.69208006 56.06150783 0.70907402 57.63962936 C0.73311097 59.84496189 0.76316634 62.05013451 0.79467773 64.25537109 C0.81799416 66.14067032 0.81799416 66.14067032 0.84178162 68.0640564 C0.80090472 70.93383832 0.80090472 70.93383832 2 73 C3.64363134 73.72159424 5.31050386 74.39351421 7 75 C7 75.66 7 76.32 7 77 C-0.59 77 -8.18 77 -16 77 C-15.67 76.01 -15.34 75.02 -15 74 C-12.525 73.505 -12.525 73.505 -10 73 C-10 51.22 -10 29.44 -10 7 C-11.98 6.34 -13.96 5.68 -16 5 C-16 4.01 -16 3.02 -16 2 C-14.08404518 1.66259915 -12.16720278 1.33023588 -10.25 1 C-9.18265625 0.814375 -8.1153125 0.62875 -7.015625 0.4375 C-4 0 -4 0 0 0 Z " fill="#0F0F0F" transform="translate(375,449)"/>
<path d="M0 0 C0 4.62 0 9.24 0 14 C-0.66 14 -1.32 14 -2 14 C-2.48919922 13.06027344 -2.48919922 13.06027344 -2.98828125 12.1015625 C-3.42527344 11.28429687 -3.86226563 10.46703125 -4.3125 9.625 C-4.74175781 8.81289063 -5.17101562 8.00078125 -5.61328125 7.1640625 C-6.96778724 4.73165957 -6.96778724 4.73165957 -10 3 C-13.52961671 2.45205547 -16.85103686 2.35370823 -20 4.125 C-21.51152489 6.95910917 -21.4433302 8.8333557 -21 12 C-18.15710739 16.32584381 -15.15365685 18.27488312 -10.5625 20.5625 C-0.96748723 25.3766837 -0.96748723 25.3766837 2.3125 29.75 C3.86583354 34.83363704 3.71528396 38.62241608 1.3125 43.25 C-1.42686493 46.50762316 -4.17742722 49.08871361 -8 51 C-15.60882556 51.42936942 -22.71964202 51.32971455 -30 49 C-30 44.38 -30 39.76 -30 35 C-29.34 35 -28.68 35 -28 35 C-27.68546875 35.61488281 -27.3709375 36.22976563 -27.046875 36.86328125 C-26.40492188 38.07564453 -26.40492188 38.07564453 -25.75 39.3125 C-25.12351562 40.51326172 -25.12351562 40.51326172 -24.484375 41.73828125 C-22.87328332 44.1930762 -21.51420612 45.49905209 -19 47 C-14.02244588 47.63207036 -12.12028151 47.75447531 -7.9375 44.9375 C-5.74628667 42.10193543 -5.74628667 42.10193543 -5.625 38.5625 C-7.64925169 33.31784789 -11.23824258 31.68458135 -16 29 C-27.70986149 22.21951182 -27.70986149 22.21951182 -29.6640625 15.828125 C-30.36857188 11.71158 -30.2473384 9.5243574 -28.4375 5.6875 C-20.51338191 -3.04934816 -10.94828212 -2.0368897 0 0 Z " fill="#0B0B0B" transform="translate(487,476)"/>
<path d="M0 0 C20.50492546 0.89825202 40.6737633 3.5490512 60.8125 7.4375 C61.57340942 7.58262024 62.33431885 7.72774048 63.11828613 7.8772583 C75.67809078 10.29041136 88.03238559 12.99854206 99.4375 19 C100.09169922 19.33 100.74589844 19.66 101.41992188 20 C112.39852731 25.62667266 120.98898111 32.96694332 125 45 C119.35287403 43.23997907 113.94417211 40.98437875 108.5 38.6875 C107.57574219 38.30916016 106.65148437 37.93082031 105.69921875 37.54101562 C96.40465461 33.61176855 91.39759243 28.52806145 85.24609375 20.5234375 C80.62213786 15.32852358 75.76670429 14.26754411 69.1875 13.0625 C68.31947754 12.8970166 67.45145508 12.7315332 66.55712891 12.56103516 C63.70732227 12.02540277 60.85456188 11.50965853 58 11 C57.01306152 10.82291504 56.02612305 10.64583008 55.00927734 10.46337891 C44.14451463 8.53494045 33.32820062 6.8476352 22.34375 5.79296875 C14.70143777 4.98925695 7.38413028 3.07238534 0 1 C0 0.67 0 0.34 0 0 Z " fill="#EEEEEE" transform="translate(288,208)"/>
<path d="M0 0 C2.56801575 3.85202363 3.96222417 7.86180596 5.5625 12.1875 C5.87896484 13.01314453 6.19542969 13.83878906 6.52148438 14.68945312 C6.82505859 15.50736328 7.12863281 16.32527344 7.44140625 17.16796875 C7.71670166 17.90297607 7.99199707 18.6379834 8.27563477 19.39526367 C9.23517547 22.84566466 9.55578963 26.44631705 10 30 C2.74 30.33 -4.52 30.66 -12 31 C-12.33 33.31 -12.66 35.62 -13 38 C-13.7150503 40.55639745 -14.53845854 43.05299064 -15.37890625 45.5703125 C-16.03577997 48.13996943 -16.10808243 50.35902923 -16 53 C-14.02 53.66 -12.04 54.32 -10 55 C-10 55.99 -10 56.98 -10 58 C-17.26 58 -24.52 58 -32 58 C-32 57.01 -32 56.02 -32 55 C-31.236875 54.7525 -30.47375 54.505 -29.6875 54.25 C-24.66545751 51.91416629 -23.33449172 47.71805931 -21.4765625 42.72265625 C-21.24850922 42.11546249 -21.02045593 41.50826874 -20.78549194 40.88267517 C-20.05916014 38.94485539 -19.34184899 37.0038451 -18.625 35.0625 C-18.15165717 33.79339006 -17.67770373 32.52450768 -17.203125 31.25585938 C-16.26495858 28.74709427 -15.32948 26.23738738 -14.39550781 23.72705078 C-12.30223245 18.13643817 -10.15537012 12.56696278 -8 7 C-7.34 7.33 -6.68 7.66 -6 8 C-6 8.99 -6 9.98 -6 11 C-5.34 11 -4.68 11 -4 11 C-3.79503906 10.28972656 -3.59007812 9.57945312 -3.37890625 8.84765625 C-3.10949219 7.92855469 -2.84007812 7.00945312 -2.5625 6.0625 C-2.29566406 5.14597656 -2.02882812 4.22945313 -1.75390625 3.28515625 C-1 1 -1 1 0 0 Z " fill="#090909" transform="translate(158,468)"/>
<path d="M0 0 C0 3.3 0 6.6 0 10 C0.66 10 1.32 10 2 10 C2.309375 8.9171875 2.309375 8.9171875 2.625 7.8125 C4.37930999 4.22413866 6.45531728 1.80973253 10 0 C14.73961641 -0.7926321 17.9660221 -0.6893186 22 2 C21.25 8.75 21.25 8.75 19 11 C15.86810873 10.64410326 12.92475269 9.9804357 9.875 9.1875 C6.91639139 8.68138339 6.91639139 8.68138339 4.75 10.6875 C1.4084295 15.10314673 0.73270431 18.15723615 0.5859375 23.734375 C0.54726563 25.02988281 0.50859375 26.32539063 0.46875 27.66015625 C0.43729733 29.02343284 0.40604993 30.38671418 0.375 31.75 C0.33679531 33.12893028 0.29774213 34.50783734 0.2578125 35.88671875 C0.16351996 39.25767718 0.0779178 42.62862978 0 46 C2.97 46.66 5.94 47.32 9 48 C9 48.99 9 49.98 9 51 C0.75 51 -7.5 51 -16 51 C-15.67 50.01 -15.34 49.02 -15 48 C-12.5 46.875 -12.5 46.875 -10 46 C-8.58273764 44.81089749 -8.58273764 44.81089749 -8.88647461 41.39819336 C-8.88663375 39.79540144 -8.89232937 38.1926044 -8.90234375 36.58984375 C-8.90446617 35.32679161 -8.90446617 35.32679161 -8.90663147 34.03822327 C-8.91224737 31.33794665 -8.92480252 28.63775172 -8.9375 25.9375 C-8.94251295 24.11132932 -8.94707621 22.28515734 -8.95117188 20.45898438 C-8.96222196 15.97262458 -8.97949721 11.48632616 -9 7 C-11.97 6.505 -11.97 6.505 -15 6 C-15 5.01 -15 4.02 -15 3 C-13.0636296 2.49564306 -11.12585854 1.99666126 -9.1875 1.5 C-8.10855469 1.2215625 -7.02960938 0.943125 -5.91796875 0.65625 C-3 0 -3 0 0 0 Z " fill="#070707" transform="translate(277,475)"/>
<path d="M0 0 C6.36234304 4.39304639 10.0976704 10.55818442 12.64453125 17.84375 C14.87648679 31.38264516 12.70168566 46.18999808 8 59 C7.34 59.66 6.68 60.32 6 61 C5.34 60.34 4.68 59.68 4 59 C3.01 59.66 2.02 60.32 1 61 C0.67 60.67 0.34 60.34 0 60 C0.0643113 58.20512995 0.20139986 56.41261222 0.375 54.625 C0.51035156 53.15933594 0.51035156 53.15933594 0.6484375 51.6640625 C1 49 1 49 2 46 C2.23802671 41.9211423 2.18977914 37.83506979 2.1875 33.75 C2.18814453 32.57735596 2.18878906 31.40471191 2.18945312 30.1965332 C2.1433374 22.60578025 1.70217873 15.34693371 0.4375 7.85546875 C0.02792138 5.18223689 -0.07980762 2.69849526 0 0 Z " fill="#EDEDED" transform="translate(353,332)"/>
<path d="M0 0 C4.16960522 1.76049998 6.27128428 3.81468826 8 8 C8 10.97 8 13.94 8 17 C-0.25 17 -8.5 17 -17 17 C-15.87207207 7.97657658 -15.87207207 7.97657658 -13.0625 4.5625 C-12.53785156 3.90378906 -12.01320313 3.24507813 -11.47265625 2.56640625 C-8.28760823 -0.82140345 -4.36009065 -0.46116343 0 0 Z " fill="#F1F1F1" transform="translate(332,478)"/>
<path d="M0 0 C8.59600666 4.58984306 18.72789428 12.04892136 23 21 C22.9375 23.75 22.9375 23.75 22 26 C21.01 26.66 20.02 27.32 19 28 C18.8040625 27.43152344 18.608125 26.86304688 18.40625 26.27734375 C13.80358336 14.39373463 3.89382678 9.79656216 -7.14648438 4.80566406 C-15.46376174 1.19040915 -24.04523846 0.09676474 -33 -1 C-33 -1.66 -33 -2.32 -33 -3 C-21.42489383 -7.28899023 -10.97627166 -5.03523142 0 0 Z " fill="#121212" transform="translate(400,271)"/>
<path d="M0 0 C0.66 0 1.32 0 2 0 C6.3994434 7.42406074 7.05437624 14.49967471 6 23 C3.8203096 31.26675209 -0.5933466 39.24292776 -7 45 C-8.32 45 -9.64 45 -11 45 C-12.05752578 41.15092648 -12.03507721 39.21151576 -10.19921875 35.671875 C-9.79896484 34.87136719 -9.39871094 34.07085937 -8.98632812 33.24609375 C-8.55771484 32.42238281 -8.12910156 31.59867188 -7.6875 30.75 C-3.35498033 22.35281351 -1.02765342 14.9009746 -0.375 5.4375 C-0.30023438 4.40496094 -0.22546875 3.37242187 -0.1484375 2.30859375 C-0.09945313 1.54675781 -0.05046875 0.78492188 0 0 Z " fill="#0E0E0E" transform="translate(392,145)"/>
<path d="M0 0 C0.66 0 1.32 0 2 0 C1.835 0.7425 1.67 1.485 1.5 2.25 C-0.24595288 15.34464657 2.6781903 25.49249157 7.375 37.5625 C16.81741099 62.35189335 16.81741099 62.35189335 16 74 C13.47163112 71.47163112 13.1041016 69.49388942 12.0625 66.0625 C9.23224764 57.05360842 5.53573346 48.40099163 1.83422852 39.72094727 C-2.43590598 29.51747975 -6.78229486 17.34688457 -3.1015625 6.3046875 C-2.14761684 4.14647002 -1.14165922 2.06416064 0 0 Z " fill="#E1E1E1" transform="translate(325,280)"/>
<path d="M0 0 C2.58940649 3.88410973 3.9640635 7.94563739 5.5625 12.3125 C5.87896484 13.15490234 6.19542969 13.99730469 6.52148438 14.86523438 C6.82505859 15.68958984 7.12863281 16.51394531 7.44140625 17.36328125 C7.71670166 18.10876221 7.99199707 18.85424316 8.27563477 19.62231445 C9 22 9 22 10 28 C3.73 28 -2.54 28 -9 28 C-7.87440467 18.99523733 -7.87440467 18.99523733 -6.40625 15.09765625 C-6.09816406 14.27072266 -5.79007813 13.44378906 -5.47265625 12.59179688 C-5.15167969 11.75712891 -4.83070313 10.92246094 -4.5 10.0625 C-4.17902344 9.20076172 -3.85804688 8.33902344 -3.52734375 7.45117188 C-1.15618086 1.15618086 -1.15618086 1.15618086 0 0 Z " fill="#DFDFE1" transform="translate(158,468)"/>
<path d="M0 0 C6.77633728 8.25198665 7.90660965 18.67059502 7 29 C6.67 29.99 6.34 30.98 6 32 C1.13634454 31.58311525 -0.82938132 29.58780535 -4 26 C-4.82564453 25.18208984 -4.82564453 25.18208984 -5.66796875 24.34765625 C-7.64320187 20.86638028 -7.07090125 17.5907984 -6.6875 13.75 C-6.62626953 13.00492188 -6.56503906 12.25984375 -6.50195312 11.4921875 C-6.3492857 9.66017845 -6.17660246 7.82985684 -6 6 C-5.01 7.485 -5.01 7.485 -4 9 C-2.00902154 6.01353231 -1.05875074 3.40312738 0 0 Z " fill="#E7E7E7" transform="translate(340,168)"/>
<path d="M0 0 C-2 2 -2 2 -5.0625 3.25 C-21.8604537 10.30651744 -35.39371813 25.23901977 -44.7734375 40.3828125 C-45.17820312 40.91648437 -45.58296875 41.45015625 -46 42 C-46.66 42 -47.32 42 -48 42 C-48 40.35 -48 38.7 -48 37 C-48.66 36.67 -49.32 36.34 -50 36 C-42.19159346 25.02296471 -16.73284059 -6.64509937 0 0 Z " fill="#E6E6E6" transform="translate(305,253)"/>
<path d="M0 0 C20.65232371 0.90470904 40.91836576 3.59551019 61.1875 7.5625 C62.36729431 7.79299042 62.36729431 7.79299042 63.57092285 8.02813721 C65.83353533 8.47309279 68.09479701 8.92420064 70.35546875 9.37890625 C71.02428574 9.51219833 71.69310272 9.64549042 72.38218689 9.78282166 C76.66214265 10.65864455 80.81655762 11.75601814 85 13 C85 13.66 85 14.32 85 15 C85.99 15.495 85.99 15.495 87 16 C86.01 16.99 85.02 17.98 84 19 C83.64550781 18.54367188 83.29101562 18.08734375 82.92578125 17.6171875 C70.33579984 7.04466761 38.06386669 7.24309576 22.03979492 5.7421875 C14.50331235 4.97135923 7.27874669 3.04280902 0 1 C0 0.67 0 0.34 0 0 Z " fill="#D6D6D6" transform="translate(288,208)"/>
<path d="M0 0 C5.71415512 -0.17296209 10.70801376 0.32186949 16.25 1.6875 C16.98798828 1.86756592 17.72597656 2.04763184 18.48632812 2.2331543 C29.58822464 5.05564993 41.36415233 9.04622849 48 19 C47.46375 18.79375 46.9275 18.5875 46.375 18.375 C43.16670758 17.86842751 41.02027389 18.90756051 38 20 C35 20 35 20 33.30078125 18.53125 C32.64464844 17.8609375 31.98851562 17.190625 31.3125 16.5 C22.79482246 8.66429338 11.21666202 3.58846047 0 1 C0 0.67 0 0.34 0 0 Z " fill="#EEEEEE" transform="translate(252,91)"/>
<path d="M0 0 C-1.46773879 2.93547759 -3.60583033 3.33683113 -6.5625 4.6875 C-11.60297231 7.1206243 -15.47915712 9.78348225 -19.4765625 13.6796875 C-21 15 -21 15 -23 15 C-23.2475 15.66 -23.495 16.32 -23.75 17 C-24.74218165 19.38123596 -25.81046646 21.5935812 -27 23.875 C-30.91472893 31.71901076 -31.50577076 39.35098822 -32 48 C-32.66 47.67 -33.32 47.34 -34 47 C-36.12208274 39.68153516 -35.87158694 30.54445357 -34.0625 23.1875 C-27.48344425 13.01986839 -13.6445212 -1.76058338 0 0 Z " fill="#EAEAEA" transform="translate(343,257)"/>
<path d="M0 0 C1.0625 1.8125 1.0625 1.8125 2 4 C1.67 4.99 1.34 5.98 1 7 C1.99 7 2.98 7 4 7 C4.33 6.34 4.66 5.68 5 5 C4.54171792 7.67331214 4.00162068 9.99618664 2.9375 12.5 C1.93335056 15.17773183 1.83804459 17.16578026 2 20 C3.65 19.67 5.3 19.34 7 19 C7 19.66 7 20.32 7 21 C4.69 21 2.38 21 0 21 C0 21.66 0 22.32 0 23 C0.94875 22.79375 1.8975 22.5875 2.875 22.375 C4.421875 22.189375 4.421875 22.189375 6 22 C6.66 22.66 7.32 23.32 8 24 C7.34 24 6.68 24 6 24 C6 24.66 6 25.32 6 26 C6.66 26.33 7.32 26.66 8 27 C7.34 27 6.68 27 6 27 C5.67 27.66 5.34 28.32 5 29 C4.27554687 28.46890625 3.55109375 27.9378125 2.8046875 27.390625 C-2.07022059 23.82869216 -6.93416005 20.28595024 -12 17 C-11.67 14.36 -11.34 11.72 -11 9 C-9.68 9.66 -8.36 10.32 -7 11 C-6.01941648 9.54261898 -5.04057868 8.08406325 -4.0625 6.625 C-3.51722656 5.81289062 -2.97195313 5.00078125 -2.41015625 4.1640625 C-0.98906121 2.07280816 -0.98906121 2.07280816 0 0 Z " fill="#DFDFDF" transform="translate(379,170)"/>
<path d="M0 0 C0.33 0.99 0.66 1.98 1 3 C3.01508358 3.73323796 3.01508358 3.73323796 5 4 C4.67 6.31 4.34 8.62 4 11 C4.66 11 5.32 11 6 11 C6 8.36 6 5.72 6 3 C6.66 3.33 7.32 3.66 8 4 C5.94723174 27.28271365 5.94723174 27.28271365 -1 35 C-3.1875 35.75 -3.1875 35.75 -5 36 C-5.38195506 30.36616287 -4.88240211 26.17365568 -3.0625 20.8125 C-0.74978457 13.89887012 -0.21750484 7.25378631 0 0 Z " fill="#E8E8E8" transform="translate(385,141)"/>
<path d="M0 0 C0.99 0.33 1.98 0.66 3 1 C4.32 1 5.64 1 7 1 C10 6 10 6 11 18 C-0.55 18 -12.1 18 -24 18 C-23.67 17.34 -23.34 16.68 -23 16 C-15.08 15.67 -7.16 15.34 1 15 C0.67 10.05 0.34 5.1 0 0 Z " fill="#070707" transform="translate(339,480)"/>
<path d="M0 0 C20.79 0.33 41.58 0.66 63 1 C63 1.33 63 1.66 63 2 C52.52818039 4.85132203 42.17379884 5.3323534 31.375 5.375 C29.42968384 5.39530273 29.42968384 5.39530273 27.44506836 5.41601562 C5.31521538 5.31521538 5.31521538 5.31521538 0 0 Z " fill="#D9D9D9" transform="translate(251,226)"/>
<path d="M0 0 C11.18711664 3.93170404 20.10483563 13.68314303 28.5859375 21.68310547 C31.30946123 24.21948098 34.14708153 26.61151012 37 29 C36.01 29.495 36.01 29.495 35 30 C32.73888359 28.76307207 30.64117371 27.48440619 28.5 26.0625 C27.86924561 25.65153076 27.23849121 25.24056152 26.58862305 24.81713867 C22.82794329 22.32993684 19.28356833 19.69667272 15.8125 16.8125 C9.68572938 11.75740873 2.96131685 7.2435091 -5 6 C-1.125 3 -1.125 3 0 3 C0 2.01 0 1.02 0 0 Z " fill="#E6E6E6" transform="translate(249,167)"/>
<path d="M0 0 C5.60378899 0.43600909 9.3402594 2.00071787 14 5.1875 C14.61230469 5.59605225 15.22460938 6.00460449 15.85546875 6.42553711 C26.18528219 13.40889846 34.85183052 21.86505645 39 34 C38.62890625 36.296875 38.62890625 36.296875 38 38 C38 37.01 38 36.02 38 35 C37.01 35.33 36.02 35.66 35 36 C35 34.35 35 32.7 35 31 C34.34 31 33.68 31 33 31 C32.484375 29.824375 31.96875 28.64875 31.4375 27.4375 C25.03626936 14.76886235 11.84836952 8.37005672 -1 4 C-0.67 2.68 -0.34 1.36 0 0 Z " fill="#DADADA" transform="translate(390,264)"/>
<path d="M0 0 C5.20665469 4.20963571 9.59923326 8.76834607 13.984375 13.828125 C15.99787475 16.16653099 15.99787475 16.16653099 19 18 C19 18.66 19 19.32 19 20 C11.34827541 19.96743947 4.7791604 18.27713233 -1 13 C-1.77734375 10.296875 -1.77734375 10.296875 -2 8 C-1.34 8 -0.68 8 0 8 C-0.2784375 6.2984375 -0.2784375 6.2984375 -0.5625 4.5625 C-0.7790625 2.7990625 -0.7790625 2.7990625 -1 1 C-0.67 0.67 -0.34 0.34 0 0 Z " fill="#F1F1F1" transform="translate(301,183)"/>
<path d="M0 0 C1.7890625 2.6171875 1.7890625 2.6171875 3.625 5.875 C4.23601562 6.94492188 4.84703125 8.01484375 5.4765625 9.1171875 C7 12 7 12 8 15 C3.94096385 13.79325952 0.07001719 12.24087982 -3.8125 10.5625 C-4.76769531 10.15128906 -5.72289062 9.74007812 -6.70703125 9.31640625 C-9 8 -9 8 -10 5 C-9.34 5 -8.68 5 -8 5 C-8 4.01 -8 3.02 -8 2 C-9.32 1.67 -10.64 1.34 -12 1 C-10.56496445 0.63597631 -9.12683494 0.28413409 -7.6875 -0.0625 C-6.88699219 -0.25972656 -6.08648437 -0.45695313 -5.26171875 -0.66015625 C-3 -1 -3 -1 0 0 Z " fill="#EDEDED" transform="translate(405,238)"/>
<path d="M0 0 C0.66 0 1.32 0 2 0 C2.31453125 0.61488281 2.6290625 1.22976563 2.953125 1.86328125 C3.38109375 2.67152344 3.8090625 3.47976563 4.25 4.3125 C4.66765625 5.11300781 5.0853125 5.91351562 5.515625 6.73828125 C7.12716647 9.19376155 8.48037156 10.50530516 11 12 C16.43948065 12.51804578 19.50241928 12.37318554 24 9 C23.34 10.32 22.68 11.64 22 13 C22.66 13.66 23.32 14.32 24 15 C17.32737122 18.33631439 6.87215295 16.19908894 0 14 C0 9.38 0 4.76 0 0 Z " fill="#0E0E0E" transform="translate(457,511)"/>
<path d="M0 0 C4.16507424 1.7585869 6.20882468 3.85201505 8 8 C8.1875 11.8125 8.1875 11.8125 8 15 C6 13 6 13 5.1875 10 C4.2945785 6.79029933 4.2945785 6.79029933 1.375 5.625 C0.199375 5.315625 0.199375 5.315625 -1 5 C-1.33 6.32 -1.66 7.64 -2 9 C-4.31 9.33 -6.62 9.66 -9 10 C-9.33 9.01 -9.66 8.02 -10 7 C-11.65 7.33 -13.3 7.66 -15 8 C-10.85092036 1.41870126 -7.93769515 -0.9941536 0 0 Z " fill="#E5E5E5" transform="translate(332,478)"/>
<path d="M0 0 C2.983472 4.475208 5.11180156 9.42856402 4.875 14.875 C3.92650895 17.17847826 2.9102765 18.4219455 1 20 C0.67 19.34 0.34 18.68 0 18 C-0.66 18.66 -1.32 19.32 -2 20 C-3.5625 18.4375 -3.5625 18.4375 -5 16 C-4.88377756 10.07265539 -2.55096629 5.23244714 0 0 Z " fill="#E3E3E3" transform="translate(158,468)"/>
<path d="M0 0 C0 0.33 0 0.66 0 1 C-0.59611084 1.07927734 -1.19222168 1.15855469 -1.80639648 1.24023438 C-18.18401603 3.49771111 -33.40854935 7.53503745 -49 13 C-49 12.34 -49 11.68 -49 11 C-32.40064548 3.32549324 -18.39861987 -0.7061304 0 0 Z " fill="#D7D7D7" transform="translate(344,234)"/>
<path d="M0 0 C0.72058594 0.03544922 1.44117188 0.07089844 2.18359375 0.10742188 C5.92218436 0.33807157 8.93399315 0.64091184 12.125 2.6875 C12.125 3.6775 12.125 4.6675 12.125 5.6875 C10.96742188 5.67589844 9.80984375 5.66429687 8.6171875 5.65234375 C7.07812662 5.64295923 5.53906399 5.63385974 4 5.625 C3.23945313 5.61662109 2.47890625 5.60824219 1.6953125 5.59960938 C-2.58938595 5.58114085 -6.68793693 5.65051709 -10.875 6.6875 C-11.205 7.3475 -11.535 8.0075 -11.875 8.6875 C-11.875 7.6975 -11.875 6.7075 -11.875 5.6875 C-12.535 5.3575 -13.195 5.0275 -13.875 4.6875 C-9.14013686 -0.20519191 -6.65783507 -0.43010793 0 0 Z " fill="#F0F0F0" transform="translate(377.875,261.3125)"/>
<path d="M0 0 C-0.66560395 1.66709136 -1.33255586 3.33364453 -2 5 C-2.4021875 6.00417969 -2.804375 7.00835937 -3.21875 8.04296875 C-3.6415625 9.08066406 -4.064375 10.11835938 -4.5 11.1875 C-4.9228125 12.23292969 -5.345625 13.27835937 -5.78125 14.35546875 C-7 17 -7 17 -9 19 C-10.32 18.34 -11.64 17.68 -13 17 C-13.33 17.66 -13.66 18.32 -14 19 C-16.48412207 19.82804069 -18.35220307 20 -21 20 C-20.43152344 19.443125 -19.86304688 18.88625 -19.27734375 18.3125 C-14.83749841 13.92453933 -10.55624049 9.47906492 -6.5078125 4.7265625 C-2.3800905 0 -2.3800905 0 0 0 Z " fill="#EBEBEB" transform="translate(295,298)"/>
<path d="M0 0 C0 4.62 0 9.24 0 14 C-0.66 14 -1.32 14 -2 14 C-2.48919922 13.06027344 -2.48919922 13.06027344 -2.98828125 12.1015625 C-3.42527344 11.28429687 -3.86226563 10.46703125 -4.3125 9.625 C-4.74175781 8.81289063 -5.17101562 8.00078125 -5.61328125 7.1640625 C-6.96778724 4.73165957 -6.96778724 4.73165957 -10 3 C-12.86911207 2.62979199 -15.71333085 2.49536321 -18.6015625 2.34375 C-19.39304687 2.2303125 -20.18453125 2.116875 -21 2 C-21.33 1.34 -21.66 0.68 -22 0 C-16.03587096 -2.98206452 -6.45177322 -1.2003299 0 0 Z " fill="#131313" transform="translate(487,476)"/>
<path d="M0 0 C2.475 0.99 2.475 0.99 5 2 C5 2.66 5 3.32 5 4 C4.34 4 3.68 4 3 4 C3 4.66 3 5.32 3 6 C5.46326712 7.6446674 5.46326712 7.6446674 8 9 C8.33 8.01 8.66 7.02 9 6 C9.33 6.66 9.66 7.32 10 8 C9.67 8.66 9.34 9.32 9 10 C11.97 10 14.94 10 18 10 C18 10.66 18 11.32 18 12 C15.69 12 13.38 12 11 12 C11 12.66 11 13.32 11 14 C11.94875 13.79375 12.8975 13.5875 13.875 13.375 C14.90625 13.25125 15.9375 13.1275 17 13 C17.66 13.66 18.32 14.32 19 15 C18.34 15 17.68 15 17 15 C17 15.66 17 16.32 17 17 C17.66 17.33 18.32 17.66 19 18 C18.34 18 17.68 18 17 18 C16.67 18.66 16.34 19.32 16 20 C15.27554687 19.46890625 14.55109375 18.9378125 13.8046875 18.390625 C8.92977941 14.82869216 4.06583995 11.28595024 -1 8 C-0.67 5.36 -0.34 2.72 0 0 Z " fill="#E7E7E7" transform="translate(368,179)"/>
<path d="M0 0 C-2 2 -2 2 -5.0625 3.25 C-13.56367083 6.78775432 -20.33108035 12.78828761 -27 19 C-27.66 18.34 -28.32 17.68 -29 17 C-28.01 15.515 -28.01 15.515 -27 14 C-27.33 13.34 -27.66 12.68 -28 12 C-6.43697959 -2.60581342 -6.43697959 -2.60581342 0 0 Z " fill="#DADADA" transform="translate(305,253)"/>
<path d="M0 0 C-2.22855378 1.43845758 -4.45781857 2.87579219 -6.6875 4.3125 C-7.31333984 4.71662109 -7.93917969 5.12074219 -8.58398438 5.53710938 C-12.02244559 7.75140639 -15.47821129 9.91924912 -19 12 C-19 11.34 -19 10.68 -19 10 C-19.66 9.67 -20.32 9.34 -21 9 C-21 8.01 -21 7.02 -21 6 C-21.66 5.67 -22.32 5.34 -23 5 C-22.67 4.67 -22.34 4.34 -22 4 C-22.66 3.34 -23.32 2.68 -24 2 C-23.154375 1.95101562 -22.30875 1.90203125 -21.4375 1.8515625 C-13.82666889 1.38224826 -13.82666889 1.38224826 -6.375 -0.125 C-3 -1 -3 -1 0 0 Z " fill="#DFDFDF" transform="translate(262,247)"/>
<path d="M0 0 C6.45742108 0.85097289 12.71902894 2.14321692 19.03564453 3.72680664 C19.99212891 3.96077148 20.94861328 4.19473633 21.93408203 4.43579102 C24.26116441 5.0059262 26.58654385 5.58215887 28.91064453 6.16430664 C28.91064453 6.82430664 28.91064453 7.48430664 28.91064453 8.16430664 C29.57064453 8.49430664 30.23064453 8.82430664 30.91064453 9.16430664 C29.92064453 10.15430664 28.93064453 11.14430664 27.91064453 12.16430664 C27.57806641 11.7118457 27.24548828 11.25938477 26.90283203 10.79321289 C23.97058657 8.39567101 20.65765927 7.87940085 17.03564453 7.10180664 C16.28420166 6.93261719 15.53275879 6.76342773 14.75854492 6.58911133 C8.18501056 5.14364397 1.58385106 4.04633046 -5.08935547 3.16430664 C-3.4406045 1.12301164 -2.67407257 0.21028872 0 0 Z " fill="#DEDEDE" transform="translate(344.08935546875,214.835693359375)"/>
<path d="M0 0 C1.9375 0.6875 1.9375 0.6875 4 2 C5.97005677 6.33412489 4.22469826 9.99219716 2.69140625 14.20703125 C2.46324219 14.79871094 2.23507812 15.39039063 2 16 C1.01 15.34 0.02 14.68 -1 14 C-1.99 14.66 -2.98 15.32 -4 16 C-4.33 15.67 -4.66 15.34 -5 15 C-4.91015699 13.14227838 -4.75388139 11.28752015 -4.5625 9.4375 C-4.46066406 8.42558594 -4.35882813 7.41367187 -4.25390625 6.37109375 C-4.17011719 5.58863281 -4.08632813 4.80617188 -4 4 C-3.67 4.99 -3.34 5.98 -3 7 C-2.01 7 -1.02 7 0 7 C-0.66 6.67 -1.32 6.34 -2 6 C-1.34 4.02 -0.68 2.04 0 0 Z " fill="#E3E3E3" transform="translate(358,377)"/>
<path d="M0 0 C0.66 0 1.32 0 2 0 C1.83371094 0.804375 1.66742188 1.60875 1.49609375 2.4375 C0.80055369 7.43224438 0.98996063 12.33582693 1.12695312 17.3671875 C1.19333467 22.00608626 0.78624762 25.62894699 -1 30 C-4.61067568 23.74149549 -4.74740739 16.04698392 -4 9 C-2.95217866 5.8245065 -1.6169422 2.92348925 0 0 Z " fill="#E1E1E1" transform="translate(325,280)"/>
<path d="M0 0 C4.6287703 1.46171694 4.6287703 1.46171694 6.25 3.8125 C7.07438534 6.21695724 7.66814419 8.47789585 8 11 C7.67 11.66 7.34 12.32 7 13 C6.34 13 5.68 13 5 13 C5.33 14.32 5.66 15.64 6 17 C0.22078804 12.69633152 0.22078804 12.69633152 -0.8125 9.4375 C-0.874375 8.633125 -0.93625 7.82875 -1 7 C-1.226875 6.29875 -1.45375 5.5975 -1.6875 4.875 C-2 3 -2 3 0 0 Z " fill="#F1F1F1" transform="translate(294,178)"/>
<path d="M0 0 C3 2 3 2 3.66015625 4.42578125 C3.79292969 5.37839844 3.92570312 6.33101563 4.0625 7.3125 C4.61759295 11.18757746 5.53814207 14.37871709 7 18 C7 18.99 7 19.98 7 21 C5.68 21.33 4.36 21.66 3 22 C2.75765625 20.86820313 2.5153125 19.73640625 2.265625 18.5703125 C1.92796072 17.08834148 1.58937073 15.60658117 1.25 14.125 C1.09273438 13.37863281 0.93546875 12.63226563 0.7734375 11.86328125 C-0.15393832 7.53740629 -0.15393832 7.53740629 -3.140625 4.4921875 C-3.75421875 4.32976562 -4.3678125 4.16734375 -5 4 C-3.35 2.68 -1.7 1.36 0 0 Z " fill="#DBDBDB" transform="translate(314,116)"/>
<path d="M0 0 C0.66 0.33 1.32 0.66 2 1 C2 1.99 2 2.98 2 4 C2.66 4.33 3.32 4.66 4 5 C2.35 9.95 0.7 14.9 -1 20 C-1.33 19.34 -1.66 18.68 -2 18 C-3.65 18.99 -5.3 19.98 -7 21 C-5.180206 13.74839665 -2.93841629 6.87619244 0 0 Z " fill="#1A1A1A" transform="translate(150,475)"/>
<path d="M0 0 C-1.46773879 2.93547759 -3.60583033 3.33683113 -6.5625 4.6875 C-12.20259658 7.41657899 -16.57092877 10.59698213 -21 15 C-21.99 13.68 -22.98 12.36 -24 11 C-17.2537948 5.37494065 -9.14021766 -0.55994126 0 0 Z " fill="#E2E2E2" transform="translate(343,257)"/>
<path d="M0 0 C1.5625 1.125 1.5625 1.125 3 3 C2.6875 6.1875 2.6875 6.1875 2 9 C1.01 9.33 0.02 9.66 -1 10 C-1.66 10.66 -2.32 11.32 -3 12 C-3.33 11.34 -3.66 10.68 -4 10 C-4.66 11.32 -5.32 12.64 -6 14 C-9 10.375 -9 10.375 -9 7 C-8.01 7 -7.02 7 -6 7 C-5.7525 6.401875 -5.505 5.80375 -5.25 5.1875 C-3.83629988 2.71352479 -2.34944617 1.56629745 0 0 Z " fill="#F1F1F1" transform="translate(368,143)"/>
<path d="M0 0 C11.56666667 9.7 11.56666667 9.7 13 14 C11.37419034 13.88601335 9.74932843 13.75844341 8.125 13.625 C7.22007812 13.55539063 6.31515625 13.48578125 5.3828125 13.4140625 C3 13 3 13 1 11 C1.66 10.34 2.32 9.68 3 9 C3.33 8.34 3.66 7.68 4 7 C1.03 6.505 1.03 6.505 -2 6 C-1.125 1.125 -1.125 1.125 0 0 Z " fill="#DFDFDF" transform="translate(307,189)"/>
<path d="M0 0 C2.475 0.99 2.475 0.99 5 2 C5 2.66 5 3.32 5 4 C4.34 4 3.68 4 3 4 C3.66 4.66 4.32 5.32 5 6 C5.66 6.66 6.32 7.32 7 8 C6.01 8.495 6.01 8.495 5 9 C5.28875 9.556875 5.5775 10.11375 5.875 10.6875 C7.0413253 13.08494645 8.0339881 15.51596939 9 18 C8.01 17.67 7.02 17.34 6 17 C6 16.34 6 15.68 6 15 C5.01 15.33 4.02 15.66 3 16 C2.13050683 14.92892883 1.27985795 13.84254056 0.4375 12.75 C-0.03816406 12.14671875 -0.51382812 11.5434375 -1.00390625 10.921875 C-2 9 -2 9 -1.65234375 6.890625 C-1.43707031 6.26671875 -1.22179687 5.6428125 -1 5 C-1 4.34 -1 3.68 -1 3 C-0.67 2.01 -0.34 1.02 0 0 Z " fill="#E9E9E9" transform="translate(283,163)"/>
<path d="M0 0 C0.33 0 0.66 0 1 0 C1.33 2.64 1.66 5.28 2 8 C2.99 7.67 3.98 7.34 5 7 C5 7.99 5 8.98 5 10 C6.32 9.67 7.64 9.34 9 9 C8.23570339 10.44098611 7.46327445 11.87766054 6.6875 13.3125 C6.25824219 14.11300781 5.82898438 14.91351563 5.38671875 15.73828125 C4.09940446 17.83787272 2.81593292 19.35447721 1 21 C-1 18 -1 18 -2 16 C-1.67 15.01 -1.34 14.02 -1 13 C-0.77548542 10.77425665 -0.59217122 8.54418481 -0.4375 6.3125 C-0.35371094 5.13300781 -0.26992188 3.95351562 -0.18359375 2.73828125 C-0.12300781 1.83464844 -0.06242187 0.93101562 0 0 Z " fill="#DCDCDC" transform="translate(333,131)"/>
<path d="M0 0 C1.55693206 2.33539809 2.90200646 4.57968756 4.1875 7.0625 C4.55230469 7.75472656 4.91710937 8.44695312 5.29296875 9.16015625 C5.52628906 9.76730469 5.75960938 10.37445313 6 11 C5.67 11.66 5.34 12.32 5 13 C3.68 12.67 2.36 12.34 1 12 C1 13.32 1 14.64 1 16 C0.01 16.66 -0.98 17.32 -2 18 C-2.99 15.03 -3.98 12.06 -5 9 C-3.35 8.34 -1.7 7.68 0 7 C-0.185625 6.401875 -0.37125 5.80375 -0.5625 5.1875 C-1 3 -1 3 0 0 Z " fill="#EAEAEA" transform="translate(282,152)"/>
<path d="M0 0 C0.391875 0.515625 0.78375 1.03125 1.1875 1.5625 C0.8575 2.490625 0.5275 3.41875 0.1875 4.375 C-0.96217004 7.48279291 -0.96217004 7.48279291 -0.8125 10.5625 C-1.8025 10.8925 -2.7925 11.2225 -3.8125 11.5625 C-4.70672914 10.3261832 -5.57737891 9.07278438 -6.4375 7.8125 C-6.92476563 7.11640625 -7.41203125 6.4203125 -7.9140625 5.703125 C-8.8125 3.5625 -8.8125 3.5625 -8.11328125 1.35546875 C-6.8125 -0.4375 -6.8125 -0.4375 -4.375 -1.375 C-1.8125 -1.4375 -1.8125 -1.4375 0 0 Z " fill="#F1F1F1" transform="translate(297.8125,109.4375)"/>
<path d="M0 0 C2.50200603 2.50200603 2.63552469 4.18861475 3.375 7.625 C4.29942584 11.58954795 5.334049 15.03094018 7.25 18.625 C7.8275 19.73875 8.405 20.8525 9 22 C8.67 22.66 8.34 23.32 8 24 C2.68423955 17.07572414 -0.95239355 10.17376478 -4 2 C-2.68 1.34 -1.36 0.68 0 0 Z " fill="#E2E2E2" transform="translate(307,153)"/>
<path d="M0 0 C0.99 0 1.98 0 3 0 C4.82421875 2.625 4.82421875 2.625 6.6875 6 C7.31011719 7.11375 7.93273437 8.2275 8.57421875 9.375 C9.04472656 10.24125 9.51523437 11.1075 10 12 C8.68 13.32 7.36 14.64 6 16 C2.7571671 12.27074217 0.4880099 7.69761265 -1 3 C-0.67 2.01 -0.34 1.02 0 0 Z " fill="#E2E2E2" transform="translate(319,137)"/>
<path d="M0 0 C6.04801071 0.54981916 11.30601106 1.90429574 17 4 C16.34 5.32 15.68 6.64 15 8 C14.34 8 13.68 8 13 8 C12.67 8.66 12.34 9.32 12 10 C9.99708788 8.52464063 7.99763223 7.04497707 6 5.5625 C5.42765625 5.14162109 4.8553125 4.72074219 4.265625 4.28710938 C2.82546081 3.21555864 1.41048004 2.11033324 0 1 C0 0.67 0 0.34 0 0 Z " fill="#121212" transform="translate(316,82)"/>
<path d="M0 0 C4.67623588 7.01435382 5.41199432 15.76011369 5 24 C2.32363112 21.32363112 1.61599032 18.27382398 0.5 14.75 C0.28730469 14.09386719 0.07460938 13.43773437 -0.14453125 12.76171875 C-0.76653582 10.84228133 -1.38333183 8.92115852 -2 7 C-2.66397428 4.99910455 -3.3296101 2.99875507 -4 1 C-2.68 0.67 -1.36 0.34 0 0 Z " fill="#DADADA" transform="translate(336,330)"/>
<path d="M0 0 C0.33 0.66 0.66 1.32 1 2 C3.02463255 2.65213292 3.02463255 2.65213292 5 3 C4.5359375 4.3303125 4.5359375 4.3303125 4.0625 5.6875 C2.42489586 11.30877947 2.33225589 17.18552198 2 23 C1.34 22.67 0.68 22.34 0 22 C-1.23889074 17.82070402 -1.13348313 13.64313932 -1.125 9.3125 C-1.12886719 8.63638672 -1.13273437 7.96027344 -1.13671875 7.26367188 C-1.12674825 2.2534965 -1.12674825 2.2534965 0 0 Z " fill="#D8D8D8" transform="translate(309,282)"/>
<path d="M0 0 C0.99 0.66 1.98 1.32 3 2 C3.59309828 6.40587294 3.26095037 8.53702354 1.0625 12.4375 C0.381875 13.283125 -0.29875 14.12875 -1 15 C-1.33 15 -1.66 15 -2 15 C-2.33 16.65 -2.66 18.3 -3 20 C-3.33 20 -3.66 20 -4 20 C-4 14.72 -4 9.44 -4 4 C-3.01 3.67 -2.02 3.34 -1 3 C-0.67 2.01 -0.34 1.02 0 0 Z " fill="#F3F3F3" transform="translate(337,164)"/>
<path d="M0 0 C0.66 0 1.32 0 2 0 C2.66 1.32 3.32 2.64 4 4 C-2.46550864 8.31033909 -8.41392177 9.26617818 -16 9 C-16 8.34 -16 7.68 -16 7 C-14.2675 6.62875 -14.2675 6.62875 -12.5 6.25 C-7.93858296 5.12593652 -4.13226443 3.21371309 0 1 C0 0.67 0 0.34 0 0 Z " fill="#0B0B0B" transform="translate(154,290)"/>
<path d="M0 0 C1.32 0.33 2.64 0.66 4 1 C3.773125 1.9075 3.54625 2.815 3.3125 3.75 C2.66443541 6.98439148 2.66443541 6.98439148 4.4375 9.25 C4.953125 9.8275 5.46875 10.405 6 11 C6 11.66 6 12.32 6 13 C4 14.625 4 14.625 2 16 C0.12270187 12.8320594 -0.09587672 10.64331523 0 7 C-0.33 6.34 -0.66 5.68 -1 5 C-1.66 5 -2.32 5 -3 5 C-2.67 3.68 -2.34 2.36 -2 1 C-1.67 1.33 -1.34 1.66 -1 2 C-0.67 1.34 -0.34 0.68 0 0 Z " fill="#F3F3F3" transform="translate(357,161)"/>
<path d="M0 0 C0.66 1.32 1.32 2.64 2 4 C1.01 5.485 1.01 5.485 0 7 C1.95825873 7.02694851 3.91662226 7.04637218 5.875 7.0625 C7.51082031 7.07990234 7.51082031 7.07990234 9.1796875 7.09765625 C11.95177546 7.19744303 11.95177546 7.19744303 14 6 C14 6.99 14 7.98 14 9 C6.74 9 -0.52 9 -8 9 C-8 8.01 -8 7.02 -8 6 C-7.236875 5.7525 -6.47375 5.505 -5.6875 5.25 C-2.7635955 3.89004442 -1.69995644 2.68414174 0 0 Z " fill="#313131" transform="translate(134,517)"/>
<path d="M0 0 C7.11484687 0.3856646 13.35441866 1.39099399 20 4 C20 4.33 20 4.66 20 5 C12.95559921 5.21133202 6.75887425 5.07965362 0 3 C0 2.01 0 1.02 0 0 Z " fill="#E3E3E3" transform="translate(325,212)"/>
<path d="M0 0 C5.39882424 4.59474404 10.71333087 9.27676273 16 14 C15.01 14.495 15.01 14.495 14 15 C11.54726594 13.68295613 9.26565762 12.32359732 6.9375 10.8125 C5.96200195 10.21211914 5.96200195 10.21211914 4.96679688 9.59960938 C0.20159056 6.5401585 0.20159056 6.5401585 -0.75561523 3.9753418 C-1 2 -1 2 0 0 Z " fill="#CACACA" transform="translate(270,182)"/>
<path d="M0 0 C0.66 0.33 1.32 0.66 2 1 C2.8515625 3.72265625 2.8515625 3.72265625 3.625 7.0625 C3.88539063 8.16722656 4.14578125 9.27195312 4.4140625 10.41015625 C4.60742188 11.26480469 4.80078125 12.11945313 5 13 C1.55998007 11.71139319 -0.42611996 10.57388004 -3 8 C-3.99 8 -4.98 8 -6 8 C-4.02 5.36 -2.04 2.72 0 0 Z " fill="#DCDCDC" transform="translate(345,397)"/>
<path d="M0 0 C0.66 0 1.32 0 2 0 C2.86355778 1.95421035 3.71559934 3.91351347 4.5625 5.875 C5.03816406 6.96554687 5.51382812 8.05609375 6.00390625 9.1796875 C6.33261719 10.11039062 6.66132813 11.04109375 7 12 C6.67 12.66 6.34 13.32 6 14 C5.34 13.34 4.68 12.68 4 12 C4.33 11.34 4.66 10.68 5 10 C3.68 10.99 2.36 11.98 1 13 C-0.99544337 8.88439805 -1.26247139 5.54950416 -1 1 C-0.67 0.67 -0.34 0.34 0 0 Z " fill="#EAEAEA" transform="translate(325,304)"/>
<path d="M0 0 C0 2.66666667 0 5.33333333 0 8 C-1.65 8.33 -3.3 8.66 -5 9 C-7.29013653 5.5647952 -7.17842973 4.014669 -7 0 C-2.25 -1.125 -2.25 -1.125 0 0 Z " fill="#F7F7F7" transform="translate(282,152)"/>
<path d="M0 0 C-3.50656417 4.38554292 -7.35137096 5.31985348 -12.5625 6.6875 C-14.08466123 7.10797947 -15.60679765 7.5285488 -17.12890625 7.94921875 C-17.79994385 8.12799561 -18.47098145 8.30677246 -19.16235352 8.4909668 C-20.79023498 8.9418945 -22.3975018 9.46583393 -24 10 C-24 9.34 -24 8.68 -24 8 C-21.45976352 6.87167643 -18.91791162 5.74726572 -16.375 4.625 C-15.66214844 4.30789062 -14.94929688 3.99078125 -14.21484375 3.6640625 C-2.76028963 -1.38014482 -2.76028963 -1.38014482 0 0 Z " fill="#C8C8C8" transform="translate(319,237)"/>
<path d="M0 0 C1.5625 1.8125 1.5625 1.8125 3 4 C2.67 4.99 2.34 5.98 2 7 C1.814375 8.2375 1.814375 8.2375 1.625 9.5 C0.93015985 12.2793606 0.29529175 13.32267141 -2 15 C-2.99 15 -3.98 15 -5 15 C-5 12.69 -5 10.38 -5 8 C-4.01 8.33 -3.02 8.66 -2 9 C-1.34 6.03 -0.68 3.06 0 0 Z " fill="#F3F3F3" transform="translate(385,162)"/>
<path d="M0 0 C7.62595318 -0.45755719 14.6029854 1.25463701 22 3 C21.01 3.33 20.02 3.66 19 4 C19 4.99 19 5.98 19 7 C18.46632813 6.81824219 17.93265625 6.63648437 17.3828125 6.44921875 C11.62408217 4.5063945 5.83006078 2.71615568 0 1 C0 0.67 0 0.34 0 0 Z " fill="#D5D5D5" transform="translate(252,91)"/>
<path d="M0 0 C4.87778078 4.15514659 7.99197066 9.97591199 10 16 C6.27566618 14.7874262 2.62197194 13.49140021 -1 12 C0.32 11.67 1.64 11.34 3 11 C2.74438677 8.6568787 2.40729228 6.32156597 2 4 C1.34 3.67 0.68 3.34 0 3 C0 2.01 0 1.02 0 0 Z " fill="#CFCFCF" transform="translate(403,237)"/>
<path d="M0 0 C4.96916636 0.51405169 9.29026351 1.23384882 14 3 C14 3.66 14 4.32 14 5 C6.08 5.495 6.08 5.495 -2 6 C-1.01 5.34 -0.02 4.68 1 4 C0.67 2.68 0.34 1.36 0 0 Z " fill="#DCDCDC" transform="translate(250,208)"/>
<path d="M0 0 C0.99 0.99 1.98 1.98 3 3 C2.67 3.66 2.34 4.32 2 5 C2.66 5.33 3.32 5.66 4 6 C3.21654285 7.17219543 2.42297164 8.33763668 1.625 9.5 C1.18414062 10.1496875 0.74328125 10.799375 0.2890625 11.46875 C-0.34902344 12.22671875 -0.34902344 12.22671875 -1 13 C-1.66 13 -2.32 13 -3 13 C-3 11.35 -3 9.7 -3 8 C-3.66 7.67 -4.32 7.34 -5 7 C-3.35 4.69 -1.7 2.38 0 0 Z " fill="#E2E2E2" transform="translate(260,282)"/>
<path d="M0 0 C2.97 0.33 5.94 0.66 9 1 C9 3.66666667 9 6.33333333 9 9 C6.03 7.35 3.06 5.7 0 4 C0 2.68 0 1.36 0 0 Z " fill="#ECECEC" transform="translate(271,95)"/>
<path d="M0 0 C5.28798182 0.41474367 8.11690718 1.35224614 12 5 C11.01 6.485 11.01 6.485 10 8 C6.37 6.68 2.74 5.36 -1 4 C-0.67 2.68 -0.34 1.36 0 0 Z " fill="#D3D3D3" transform="translate(390,264)"/>
<path d="M0 0 C2.64852989 2.3768858 4.68758997 4.24654051 6.0625 7.5625 C6 10 6 10 4.0625 12.3125 C3.381875 12.869375 2.70125 13.42625 2 14 C0.02905192 9.07262981 -0.1799928 5.21979128 0 0 Z " fill="#131313" transform="translate(417,285)"/>
<path d="M0 0 C-2.2053702 2.2053702 -4.33676181 3.04275115 -7.1953125 4.19921875 C-9.21281688 5.03722948 -9.21281688 5.03722948 -11.6875 6.75 C-14 8 -14 8 -16.3125 7.6875 C-16.869375 7.460625 -17.42625 7.23375 -18 7 C-15.54234547 4.18652343 -12.93721011 2.80685406 -9.5625 1.25 C-8.61503906 0.80140625 -7.66757812 0.3528125 -6.69140625 -0.109375 C-3.87551411 -1.04119417 -2.71771213 -1.05367562 0 0 Z " fill="#E9E9E9" transform="translate(305,253)"/>
<path d="M0 0 C0 1.32 0 2.64 0 4 C-0.99 4.33 -1.98 4.66 -3 5 C-4.21869929 7.50447516 -4.21869929 7.50447516 -5 10 C-7.45484649 7.86535088 -8.68134222 6.29279709 -9 3 C-6.40821726 0.40821726 -3.54324677 -1.77162338 0 0 Z " fill="#F1F1F1" transform="translate(334,149)"/>
<path d="M0 0 C0.66 0.99 1.32 1.98 2 3 C1.21625 3.763125 0.4325 4.52625 -0.375 5.3125 C-3.07257717 7.90891805 -3.07257717 7.90891805 -5 11 C-5.66 11 -6.32 11 -7 11 C-7 7.7 -7 4.4 -7 1 C-6.67 1.99 -6.34 2.98 -6 4 C-3.83333333 3.16666667 -3.83333333 3.16666667 -3 1 C-2.01 0.67 -1.02 0.34 0 0 Z " fill="#CECECE" transform="translate(284,474)"/>
<path d="M0 0 C2 1 2 1 2.875 3.1875 C3.05415567 7.21850252 1.58237267 8.9988642 -1 12 C-2.32 12 -3.64 12 -5 12 C-3.68938409 7.76570244 -2.05643741 3.92592596 0 0 Z " fill="#DEDEDE" transform="translate(332,416)"/>
<path d="M0 0 C2.375 0.25 2.375 0.25 5 1 C6.3125 3.0625 6.3125 3.0625 7 5 C5.35 5.66 3.7 6.32 2 7 C2.33 8.65 2.66 10.3 3 12 C2.01 11.34 1.02 10.68 0 10 C-0.29296875 7.6171875 -0.29296875 7.6171875 -0.1875 4.875 C-0.16042969 3.96492187 -0.13335937 3.05484375 -0.10546875 2.1171875 C-0.07066406 1.41851562 -0.03585937 0.71984375 0 0 Z " fill="#EEEEEE" transform="translate(266,130)"/>
<path d="M0 0 C-0.49831724 3.68754757 -1.10067643 5.60490662 -4 8 C-4.33 7.34 -4.66 6.68 -5 6 C-5.66 6.66 -6.32 7.32 -7 8 C-7.99 6.35 -8.98 4.7 -10 3 C-3.375 -1.125 -3.375 -1.125 0 0 Z " fill="#F3F2F4" transform="translate(163,480)"/>
<path d="M0 0 C-0.433125 1.051875 -0.433125 1.051875 -0.875 2.125 C-2.02133588 5.05452503 -3.02625654 8.00921653 -4 11 C-6.31 10.67 -8.62 10.34 -11 10 C-10.06409496 8.8944811 -9.12620142 7.79064547 -8.1875 6.6875 C-7.66542969 6.07261719 -7.14335937 5.45773437 -6.60546875 4.82421875 C-2.35974304 0 -2.35974304 0 0 0 Z " fill="#D8D8D8" transform="translate(295,298)"/>
<path d="M0 0 C8.8150919 0.41559987 17.39602581 0.86968908 26 3 C26 3.33 26 3.66 26 4 C16.91990679 4.4490156 8.80578857 3.18842083 0 1 C0 0.67 0 0.34 0 0 Z " fill="#DCDCDC" transform="translate(288,208)"/>
<path d="M0 0 C0.84820312 0.11859375 1.69640625 0.2371875 2.5703125 0.359375 C3.45203125 0.47667969 4.33375 0.59398437 5.2421875 0.71484375 C7.7430629 1.1170546 10.22787716 1.53364009 12.6953125 2.109375 C12.3653125 3.099375 12.0353125 4.089375 11.6953125 5.109375 C6.0853125 4.449375 0.4753125 3.789375 -5.3046875 3.109375 C-2.3046875 0.109375 -2.3046875 0.109375 0 0 Z " fill="#D3D3D3" transform="translate(344.3046875,214.890625)"/>
<path d="M0 0 C0.66 0.66 1.32 1.32 2 2 C1.07038578 3.15224028 0.1309875 4.29659176 -0.8125 5.4375 C-1.59560547 6.39462891 -1.59560547 6.39462891 -2.39453125 7.37109375 C-4 9 -4 9 -7 10 C-7.66 8.35 -8.32 6.7 -9 5 C-8.43410156 4.72285156 -7.86820312 4.44570313 -7.28515625 4.16015625 C-6.55167969 3.79792969 -5.81820313 3.43570313 -5.0625 3.0625 C-3.96615234 2.52302734 -3.96615234 2.52302734 -2.84765625 1.97265625 C-1.03750973 1.13628173 -1.03750973 1.13628173 0 0 Z " fill="#191919" transform="translate(347,515)"/>
<path d="M0 0 C2.83022097 3.99560608 1.76210446 7.42737323 1 12 C-0.32 11.67 -1.64 11.34 -3 11 C-3.32613618 6.32538149 -2.70582788 3.83325617 0 0 Z " fill="#EFEFEF" transform="translate(345,188)"/>
<path d="M0 0 C0.99 0 1.98 0 3 0 C3 0.66 3 1.32 3 2 C3.99 2 4.98 2 6 2 C6 3.65 6 5.3 6 7 C5.01 7.495 5.01 7.495 4 8 C4 7.01 4 6.02 4 5 C3.67 5.66 3.34 6.32 3 7 C0.69 6.34 -1.62 5.68 -4 5 C-3.34 4.67 -2.68 4.34 -2 4 C-2 3.34 -2 2.68 -2 2 C-1.34 2 -0.68 2 0 2 C0 1.34 0 0.68 0 0 Z " fill="#F2F2F2" transform="translate(373,181)"/>
<path d="M0 0 C5.40838443 3.56879789 10.74979781 7.20198139 16 11 C14.25 11.66796875 14.25 11.66796875 12 12 C10 10.92578125 10 10.92578125 8 9.3125 C7.3090625 8.75691406 6.618125 8.20132813 5.90625 7.62890625 C3.81144738 5.83888024 1.79572568 4.09501329 0 2 C0 1.34 0 0.68 0 0 Z " fill="#DADADA" transform="translate(318,190)"/>
<path d="M0 0 C1.32 0.66 2.64 1.32 4 2 C2.68206814 7.66710699 0.51290803 9.66437233 -4 13 C-3.52140759 11.39566191 -3.04210442 9.79153584 -2.5625 8.1875 C-2.29566406 7.29417969 -2.02882813 6.40085937 -1.75390625 5.48046875 C-1.19612127 3.64526945 -0.60655425 1.81966274 0 0 Z " fill="#121212" transform="translate(362,384)"/>
<path d="M0 0 C0.99 0 1.98 0 3 0 C2.71125 0.70125 2.4225 1.4025 2.125 2.125 C0.97866412 5.05452503 -0.02625654 8.00921653 -1 11 C-2.5 9.6875 -2.5 9.6875 -4 8 C-4 5.37886292 -3.68707555 3.49064888 -3 1 C-2.01 1.33 -1.02 1.66 0 2 C0 1.34 0 0.68 0 0 Z " fill="#E8E8E8" transform="translate(254,297)"/>
<path d="M0 0 C0.99 0.33 1.98 0.66 3 1 C3 1.66 3 2.32 3 3 C3.763125 2.896875 4.52625 2.79375 5.3125 2.6875 C6.199375 2.790625 7.08625 2.89375 8 3 C9.8125 5.5 9.8125 5.5 11 8 C10.01 8.33 9.02 8.66 8 9 C5.73828125 7.56640625 5.73828125 7.56640625 3.3125 5.5625 C2.10013672 4.57443359 2.10013672 4.57443359 0.86328125 3.56640625 C-0.05904297 2.79103516 -0.05904297 2.79103516 -1 2 C-0.67 1.34 -0.34 0.68 0 0 Z " fill="#EFEFEF" transform="translate(260,177)"/>
<path d="M0 0 C2.0625 0.4375 2.0625 0.4375 4 1 C2.33333333 2.66666667 0.66666667 4.33333333 -1 6 C-1.556875 6.598125 -2.11375 7.19625 -2.6875 7.8125 C-4 9 -4 9 -6 9 C-6.33 8.01 -6.66 7.02 -7 6 C-5.62209707 3.24419414 -3.62850007 2.51138754 -1 1 C-0.67 0.67 -0.34 0.34 0 0 Z " fill="#161616" transform="translate(428,516)"/>
<path d="M0 0 C4.00458831 0.61609051 6.83019669 2.55060653 10 5 C10 5.99 10 6.98 10 8 C5.99541169 7.38390949 3.16980331 5.44939347 0 3 C0 2.01 0 1.02 0 0 Z " fill="#E9E9E9" transform="translate(401,269)"/>
<path d="M0 0 C2.03833424 1.2739589 4.03852126 2.61061923 6 4 C6 4.66 6 5.32 6 6 C4.37419034 5.88601335 2.74932843 5.75844341 1.125 5.625 C0.22007812 5.55539063 -0.68484375 5.48578125 -1.6171875 5.4140625 C-4 5 -4 5 -6 3 C-4.68 3 -3.36 3 -2 3 C-2 2.34 -2 1.68 -2 1 C-1.34 0.67 -0.68 0.34 0 0 Z " fill="#CBCBCB" transform="translate(314,197)"/>
<path d="M0 0 C0.66 0 1.32 0 2 0 C2 0.66 2 1.32 2 2 C2.66 2 3.32 2 4 2 C3.01 5.3 2.02 8.6 1 12 C-0.32 10.68 -1.64 9.36 -3 8 C-1.125 2.25 -1.125 2.25 0 0 Z " fill="#E2E2E2" transform="translate(362,160)"/>
<path d="M0 0 C0.99 0 1.98 0 3 0 C3 0.66 3 1.32 3 2 C5.93782469 1.85924795 8.87515171 1.7126162 11.8125 1.5625 C12.64587891 1.52318359 13.47925781 1.48386719 14.33789062 1.44335938 C15.14033203 1.40146484 15.94277344 1.35957031 16.76953125 1.31640625 C17.87711792 1.26141968 17.87711792 1.26141968 19.00708008 1.20532227 C21.207495 1.05157859 21.207495 1.05157859 24 0 C24 0.99 24 1.98 24 3 C15.75 3 7.5 3 -1 3 C-0.67 2.01 -0.34 1.02 0 0 Z " fill="#585858" transform="translate(262,523)"/>
<path d="M0 0 C-0.33 2.31 -0.66 4.62 -1 7 C-2.65 7.66 -4.3 8.32 -6 9 C-6.8125 7.3125 -6.8125 7.3125 -7 5 C-2.79545455 0 -2.79545455 0 0 0 Z " fill="#E1E1E1" transform="translate(432,518)"/>
<path d="M0 0 C1.98 1.65 3.96 3.3 6 5 C5.01 5.495 5.01 5.495 4 6 C4 7.65 4 9.3 4 11 C3.34 11 2.68 11 2 11 C1.67 11.66 1.34 12.32 1 13 C0.67 8.71 0.34 4.42 0 0 Z " fill="#E0E0E0" transform="translate(353,332)"/>
<path d="M0 0 C2.475 0.99 2.475 0.99 5 2 C5 2.66 5 3.32 5 4 C4.34 4 3.68 4 3 4 C2.77390663 6.12364481 2.77390663 6.12364481 4.5 7.625 C4.995 8.07875 5.49 8.5325 6 9 C5.34 9 4.68 9 4 9 C3.67 9.66 3.34 10.32 3 11 C1.68 10.01 0.36 9.02 -1 8 C-0.67 5.36 -0.34 2.72 0 0 Z " fill="#D6D6D6" transform="translate(368,179)"/>
<path d="M0 0 C0.33 0 0.66 0 1 0 C1.0543965 2.37531394 1.09385864 4.74935883 1.125 7.125 C1.14175781 7.79015625 1.15851563 8.4553125 1.17578125 9.140625 C1.21847278 13.49516056 0.59996217 16.95600114 -1 21 C-1.99 21 -2.98 21 -4 21 C-4 19.35 -4 17.7 -4 16 C-3.34 16 -2.68 16 -2 16 C-0.89485234 12.68455701 -0.67892369 9.79589889 -0.4375 6.3125 C-0.35371094 5.13300781 -0.26992188 3.95351562 -0.18359375 2.73828125 C-0.12300781 1.83464844 -0.06242187 0.93101563 0 0 Z " fill="#D1D1D1" transform="translate(344,117)"/>
<path d="M0 0 C2.31 1.98 4.62 3.96 7 6 C6.67 6.66 6.34 7.32 6 8 C4.02 8 2.04 8 0 8 C-0.38063221 5.6739143 -0.71269945 3.33944736 -1 1 C-0.67 0.67 -0.34 0.34 0 0 Z " fill="#E4E4E4" transform="translate(410,285)"/>
<path d="M0 0 C6.0546875 -0.1953125 6.0546875 -0.1953125 8 0 C8.66 0.66 9.32 1.32 10 2 C9.34 2 8.68 2 8 2 C8 2.66 8 3.32 8 4 C8.66 4.33 9.32 4.66 10 5 C9.34 5 8.68 5 8 5 C7.67 5.66 7.34 6.32 7 7 C5.82780457 6.21654285 4.66236332 5.42297164 3.5 4.625 C2.8503125 4.18414062 2.200625 3.74328125 1.53125 3.2890625 C1.0259375 2.86367187 0.520625 2.43828125 0 2 C0 1.34 0 0.68 0 0 Z " fill="#E0E0E0" transform="translate(377,192)"/>
<path d="M0 0 C1.52817287 2.96685815 2.86635873 5.97183644 4.125 9.0625 C4.47820312 9.91972656 4.83140625 10.77695313 5.1953125 11.66015625 C6 14 6 14 6 17 C4.84962529 15.3990869 3.70485184 13.79414775 2.5625 12.1875 C1.92441406 11.29417969 1.28632813 10.40085938 0.62890625 9.48046875 C-1 7 -1 7 -2 4 C-1.0625 1.8125 -1.0625 1.8125 0 0 Z " fill="#C5C5C5" transform="translate(309,160)"/>
<path d="M0 0 C1.55693206 2.33539809 2.90200646 4.57968756 4.1875 7.0625 C4.55230469 7.75472656 4.91710937 8.44695312 5.29296875 9.16015625 C5.52628906 9.76730469 5.75960938 10.37445313 6 11 C5.67 11.66 5.34 12.32 5 13 C3.0625 12.3125 3.0625 12.3125 1 11 C0.3125 8.5625 0.3125 8.5625 0 6 C-0.33 5.01 -0.66 4.02 -1 3 C-0.67 2.01 -0.34 1.02 0 0 Z " fill="#D3D3D3" transform="translate(282,152)"/>
<path d="M0 0 C0.99 0 1.98 0 3 0 C4.1875 2.75 4.1875 2.75 5 6 C3.625 8.375 3.625 8.375 2 10 C1.01 7.03 0.02 4.06 -1 1 C-0.67 0.67 -0.34 0.34 0 0 Z " fill="#DCDCDC" transform="translate(319,137)"/>
<path d="M0 0 C0.99 0.66 1.98 1.32 3 2 C3.45892595 5.51843231 3.41140736 7.34860502 1.5 10.375 C1.005 10.91125 0.51 11.4475 0 12 C-0.0825 11.05125 -0.165 10.1025 -0.25 9.125 C-0.65074923 5.89538209 -0.65074923 5.89538209 -3.0625 4.625 C-3.701875 4.41875 -4.34125 4.2125 -5 4 C-3.35 2.68 -1.7 1.36 0 0 Z " fill="#BCBCBC" transform="translate(314,116)"/>
<path d="M0 0 C2.40072955 2.88087546 4.47291037 5.56404834 6 9 C3.69 9.33 1.38 9.66 -1 10 C-0.7215625 9.0409375 -0.7215625 9.0409375 -0.4375 8.0625 C-0.293125 7.381875 -0.14875 6.70125 0 6 C-0.33 5.67 -0.66 5.34 -1 5 C-1.33 4.01 -1.66 3.02 -2 2 C-1.34 2 -0.68 2 0 2 C0 1.34 0 0.68 0 0 Z " fill="#E1E1E1" transform="translate(288,165)"/>
<path d="M0 0 C0.61875 0.350625 1.2375 0.70125 1.875 1.0625 C2.57625 1.371875 3.2775 1.68125 4 2 C4.66 1.67 5.32 1.34 6 1 C6 1.66 6 2.32 6 3 C7.65 2.67 9.3 2.34 11 2 C11.33 3.32 11.66 4.64 12 6 C11.071875 5.79375 10.14375 5.5875 9.1875 5.375 C5.84826598 4.63307034 5.84826598 4.63307034 3 7 C2.01 4.69 1.02 2.38 0 0 Z " fill="#E4E4E4" transform="translate(354,105)"/>
<path d="M0 0 C1.29608947 0.93137592 2.58671632 1.8703566 3.875 2.8125 C4.59429687 3.33457031 5.31359375 3.85664062 6.0546875 4.39453125 C8 6 8 6 10 9 C8.68 9.33 7.36 9.66 6 10 C6 9.01 6 8.02 6 7 C5.34 7 4.68 7 4 7 C4 6.34 4 5.68 4 5 C2.35 5 0.7 5 -1 5 C-0.67 3.35 -0.34 1.7 0 0 Z " fill="#E3E3E3" transform="translate(323,88)"/>
<path d="M0 0 C0.33 0 0.66 0 1 0 C1.6875 2.8125 1.6875 2.8125 2 6 C0.5625 7.875 0.5625 7.875 -1 9 C-2.32 8.34 -3.64 7.68 -5 7 C-4.67 5.02 -4.34 3.04 -4 1 C-3.34 1.66 -2.68 2.32 -2 3 C-1.34 2.01 -0.68 1.02 0 0 Z " fill="#D2D2D2" transform="translate(422,295)"/>
<path d="M0 0 C0.99 0.33 1.98 0.66 3 1 C3 2.98 3 4.96 3 7 C1.35 7.33 -0.3 7.66 -2 8 C-2.125 5.125 -2.125 5.125 -2 2 C-1.34 1.34 -0.68 0.68 0 0 Z " fill="#DBDBDB" transform="translate(312,276)"/>
<path d="M0 0 C-4 2 -4 2 -8 4 C-8 4.66 -8 5.32 -8 6 C-7.34 6.33 -6.68 6.66 -6 7 C-6.99 7 -7.98 7 -9 7 C-9.33 7.66 -9.66 8.32 -10 9 C-10 8.01 -10 7.02 -10 6 C-10.66 5.67 -11.32 5.34 -12 5 C-7.81374099 0.67419902 -6.05150555 -0.13155447 0 0 Z " fill="#DBDBDB" transform="translate(376,261)"/>
<path d="M0 0 C1.98 1.65 3.96 3.3 6 5 C5.34 6.65 4.68 8.3 4 10 C0.92436109 8.46218054 0.29677426 6.08755777 -1 3 C-0.67 2.01 -0.34 1.02 0 0 Z " fill="#EAEAEA" transform="translate(301,183)"/>
<path d="M0 0 C2 0.8125 2 0.8125 3.25 2.875 C3.4975 3.514375 3.745 4.15375 4 4.8125 C1.6875 5.4375 1.6875 5.4375 -1 5.8125 C-1.99 5.1525 -2.98 4.4925 -4 3.8125 C-4 2.8225 -4 1.8325 -4 0.8125 C-2 -0.1875 -2 -0.1875 0 0 Z " fill="#E7E7E7" transform="translate(193,160.1875)"/>
<path d="M0 0 C0.99 0 1.98 0 3 0 C3 0.66 3 1.32 3 2 C3.66 2 4.32 2 5 2 C5.33 1.34 5.66 0.68 6 0 C6.33 0.99 6.66 1.98 7 3 C6.67 3.66 6.34 4.32 6 5 C0.25 5.125 0.25 5.125 -2 4 C-2 3.34 -2 2.68 -2 2 C-1.34 2 -0.68 2 0 2 C0 1.34 0 0.68 0 0 Z " fill="#F2F2F2" transform="translate(467,506)"/>
<path d="M0 0 C0.66 0 1.32 0 2 0 C2 0.66 2 1.32 2 2 C2.66 2 3.32 2 4 2 C3.67 2.99 3.34 3.98 3 5 C3 5.99 3 6.98 3 8 C2.34 6.68 1.68 5.36 1 4 C-0.32 4 -1.64 4 -3 4 C-3.66 5.32 -4.32 6.64 -5 8 C-5 6.35 -5 4.7 -5 3 C-3.35 2.34 -1.7 1.68 0 1 C0 0.67 0 0.34 0 0 Z " fill="#D0D0D0" transform="translate(162,450)"/>
<path d="M0 0 C0.33 0 0.66 0 1 0 C1.95261487 4.76307437 2.08333357 9.1666528 2 14 C1.01 14 0.02 14 -1 14 C-2.4552777 11.0894446 -1.63516661 9.04150948 -1.0625 5.875 C-0.77052734 4.23144531 -0.77052734 4.23144531 -0.47265625 2.5546875 C-0.31667969 1.71164062 -0.16070312 0.86859375 0 0 Z " fill="#CFCFCF" transform="translate(315,418)"/>
<path d="M0 0 C0.66 0 1.32 0 2 0 C3.83691257 3.78187881 4.15837626 5.94568308 3 10 C2.01 9.67 1.02 9.34 0 9 C-0.87890625 2.84765625 -0.87890625 2.84765625 -1 1 C-0.67 0.67 -0.34 0.34 0 0 Z " fill="#EBEBEB" transform="translate(328,314)"/>
<path d="M0 0 C1.69752187 0.25245197 3.38471545 0.57645775 5.0625 0.9375 C5.98160156 1.13214844 6.90070313 1.32679688 7.84765625 1.52734375 C8.91306641 1.76130859 8.91306641 1.76130859 10 2 C9.01 2.495 9.01 2.495 8 3 C8 3.66 8 4.32 8 5 C6.35 5.33 4.7 5.66 3 6 C1.68 4.35 0.36 2.7 -1 1 C-0.67 0.67 -0.34 0.34 0 0 Z " fill="#E7E7E7" transform="translate(115,177)"/>
<path d="M0 0 C2.5 2.3125 2.5 2.3125 5 5 C5 5.99 5 6.98 5 8 C3.68 8.33 2.36 8.66 1 9 C-0.61949011 6.42786866 -1.04408751 5.32330841 -0.625 2.25 C-0.41875 1.5075 -0.2125 0.765 0 0 Z " fill="#E0E0E0" transform="translate(204,519)"/>
<path d="M0 0 C1.51953125 1.17578125 1.51953125 1.17578125 3 3 C3.07421875 5.48046875 3.07421875 5.48046875 2.6875 8.1875 C2.50767578 9.53908203 2.50767578 9.53908203 2.32421875 10.91796875 C2.21722656 11.60503906 2.11023438 12.29210937 2 13 C1.67 13 1.34 13 1 13 C0.67 11.02 0.34 9.04 0 7 C-0.99 7 -1.98 7 -3 7 C-2.690625 6.401875 -2.38125 5.80375 -2.0625 5.1875 C-0.89790296 2.91043228 -0.89790296 2.91043228 0 0 Z " fill="#242424" transform="translate(236,512)"/>
<path d="M0 0 C0.99 0 1.98 0 3 0 C3.33 2.31 3.66 4.62 4 7 C1.5625 6.625 1.5625 6.625 -1 6 C-1.33 5.34 -1.66 4.68 -2 4 C-1.0625 1.875 -1.0625 1.875 0 0 Z " fill="#F3F3F3" transform="translate(402,241)"/>
<path d="M0 0 C0.66 0.33 1.32 0.66 2 1 C3.26229508 5.47540984 3.26229508 5.47540984 2 8 C1.34 8 0.68 8 0 8 C0.33 9.32 0.66 10.64 1 12 C-1 10.625 -1 10.625 -3 9 C-3 8.34 -3 7.68 -3 7 C-1.68 7 -0.36 7 1 7 C1 6.34 1 5.68 1 5 C0.01 5.33 -0.98 5.66 -2 6 C-2 5.34 -2 4.68 -2 4 C-1.34 4 -0.68 4 0 4 C0 3.34 0 2.68 0 2 C-0.66 1.67 -1.32 1.34 -2 1 C-1.34 0.67 -0.68 0.34 0 0 Z " fill="#F9F9F9" transform="translate(299,183)"/>
<path d="M0 0 C1.65 0 3.3 0 5 0 C4.34 2.97 3.68 5.94 3 9 C2.67 8.34 2.34 7.68 2 7 C1.34 6.67 0.68 6.34 0 6 C-1 3 -1 3 0 0 Z " fill="#DFDFDF" transform="translate(307,121)"/>
<path d="M0 0 C0.66 0 1.32 0 2 0 C1.34 5.28 0.68 10.56 0 16 C-0.33 16 -0.66 16 -1 16 C-1 13.36 -1 10.72 -1 8 C-1.66 8 -2.32 8 -3 8 C-1.125 2.25 -1.125 2.25 0 0 Z " fill="#C2C2C2" transform="translate(325,280)"/>
<path d="M0 0 C0.33 0.66 0.66 1.32 1 2 C1.66 2 2.32 2 3 2 C3 2.66 3 3.32 3 4 C2.01 4.495 2.01 4.495 1 5 C0.34444881 7.52733235 0.34444881 7.52733235 0 10 C-0.99 10 -1.98 10 -3 10 C-2.49287967 6.28111761 -1.88391785 3.26545761 0 0 Z " fill="#DDDDDD" transform="translate(179,230)"/>
<path d="M0 0 C2.09907691 4.19815383 2.21812126 4.79194474 1 9 C0.67 9.66 0.34 10.32 0 11 C-0.99 10.67 -1.98 10.34 -3 10 C-2.01 6.7 -1.02 3.4 0 0 Z " fill="#E3E3E3" transform="translate(383,160)"/>
<path d="M0 0 C0.66 0 1.32 0 2 0 C2.99 2.97 3.98 5.94 5 9 C3.35 8.67 1.7 8.34 0 8 C-0.38063221 5.6739143 -0.71269945 3.33944736 -1 1 C-0.67 0.67 -0.34 0.34 0 0 Z " fill="#DADADA" transform="translate(91,153)"/>
<path d="M0 0 C2.64 0.33 5.28 0.66 8 1 C8.33 2.32 8.66 3.64 9 5 C8.01 5.33 7.02 5.66 6 6 C2.8125 3.625 2.8125 3.625 0 1 C0 0.67 0 0.34 0 0 Z " fill="#171717" transform="translate(316,82)"/>
<path d="M0 0 C2.18975773 3.28463659 2.99806563 6.20696275 4 10 C3.01 9.34 2.02 8.68 1 8 C1.33 7.34 1.66 6.68 2 6 C0.68 6.99 -0.64 7.98 -2 9 C-2.6875 7.3125 -2.6875 7.3125 -3 5 C-1.5625 2.25 -1.5625 2.25 0 0 Z " fill="#D1D1D1" transform="translate(328,308)"/>
<path d="M0 0 C0.66 0.33 1.32 0.66 2 1 C1.34 1.66 0.68 2.32 0 3 C-0.37125 3.53625 -0.7425 4.0725 -1.125 4.625 C-4.20099296 6.88072817 -7.26481209 6.18369777 -11 6 C-11 5.34 -11 4.68 -11 4 C-9.1128125 3.566875 -9.1128125 3.566875 -7.1875 3.125 C-4.1460601 2.42696461 -2.69330122 1.79553415 0 0 Z " fill="#3C3C3C" transform="translate(149,293)"/>
<path d="M0 0 C0.33 1.32 0.66 2.64 1 4 C1.66 4 2.32 4 3 4 C3 7.3 3 10.6 3 14 C2.34 13.67 1.68 13.34 1 13 C-0.29930238 8.71230214 -0.07516774 4.43489655 0 0 Z " fill="#ADADAD" transform="translate(308,291)"/>
<path d="M0 0 C0 0.66 0 1.32 0 2 C-8.42857143 4.28571429 -8.42857143 4.28571429 -13 4 C-8.61350163 0.52105302 -5.57581513 -0.123907 0 0 Z " fill="#EDEDED" transform="translate(328,235)"/>
<path d="M0 0 C-0.66 2.64 -1.32 5.28 -2 8 C-2.66 7.67 -3.32 7.34 -4 7 C-4.66 7.66 -5.32 8.32 -6 9 C-5.6875 5.625 -5.6875 5.625 -5 2 C-2 0 -2 0 0 0 Z " fill="#E2E2E2" transform="translate(160,216)"/>
<path d="M0 0 C0.66 0.33 1.32 0.66 2 1 C0.95125002 3.62187494 0.35068687 4.79371361 -2.125 6.25 C-2.74375 6.4975 -3.3625 6.745 -4 7 C-4.33 6.01 -4.66 5.02 -5 4 C-3.36587557 2.29159719 -2.13093906 1.06546953 0 0 Z " fill="#141414" transform="translate(232,518)"/>
<path d="M0 0 C0.99 0.33 1.98 0.66 3 1 C2.649375 1.763125 2.29875 2.52625 1.9375 3.3125 C0.67639116 6.04759379 0.67639116 6.04759379 2 9 C1.67 9.66 1.34 10.32 1 11 C0.01 11 -0.98 11 -2 11 C-1.85892253 9.54119891 -1.71197585 8.08296449 -1.5625 6.625 C-1.48128906 5.81289063 -1.40007812 5.00078125 -1.31640625 4.1640625 C-1 2 -1 2 0 0 Z " fill="#D2D2D2" transform="translate(260,335)"/>
<path d="M0 0 C0.99 0.33 1.98 0.66 3 1 C2.01 1.495 2.01 1.495 1 2 C0.855625 2.804375 0.71125 3.60875 0.5625 4.4375 C0 7 0 7 -3 9 C-3.33 7.68 -3.66 6.36 -4 5 C-3.34 5 -2.68 5 -2 5 C-1.34 3.35 -0.68 1.7 0 0 Z " fill="#EFEFEF" transform="translate(276,266)"/>
<path d="M0 0 C-1.35304209 2.70608417 -2.80966544 2.96183047 -5.5625 4.125 C-6.38878906 4.47820312 -7.21507812 4.83140625 -8.06640625 5.1953125 C-8.70449219 5.46085937 -9.34257812 5.72640625 -10 6 C-10 5.34 -10 4.68 -10 4 C-10.66 3.67 -11.32 3.34 -12 3 C-4.71428571 -0.42857143 -4.71428571 -0.42857143 0 0 Z " fill="#B0B0B0" transform="translate(343,257)"/>
<path d="M0 0 C0 0.66 0 1.32 0 2 C0.99 2.33 1.98 2.66 3 3 C3 3.66 3 4.32 3 5 C-1.21912747 4.5205537 -3.79663178 3.83374881 -7 1 C-4.50935112 0.31292445 -2.62113708 0 0 0 Z " fill="#CFCFCF" transform="translate(172,91)"/>
<path d="M0 0 C1.32 0 2.64 0 4 0 C4.33 2.31 4.66 4.62 5 7 C4.01 7 3.02 7 2 7 C1.34 4.69 0.68 2.38 0 0 Z " fill="#E4E4E4" transform="translate(185,513)"/>
<path d="M0 0 C0.66 0 1.32 0 2 0 C2.84454356 3.37817425 3.10844919 5.67465243 2 9 C0.68 7.35 -0.64 5.7 -2 4 C-1.34 2.68 -0.68 1.36 0 0 Z " fill="#DFDFDF" transform="translate(372,321)"/>
<path d="M0 0 C0.66 0 1.32 0 2 0 C2.21278058 4.46839215 1.59138085 7.82262526 0 12 C-1.76462683 8.91190305 -2 7.76687864 -2 4 C-1.34 4 -0.68 4 0 4 C0 2.68 0 1.36 0 0 Z " fill="#D6D6D6" transform="translate(324,298)"/>
<path d="M0 0 C0.66 0.33 1.32 0.66 2 1 C1.8125 2.8125 1.8125 2.8125 1 5 C-1.5625 6.75 -1.5625 6.75 -4 8 C-4.33 6.35 -4.66 4.7 -5 3 C-4.01 3 -3.02 3 -2 3 C-1.34 2.01 -0.68 1.02 0 0 Z " fill="#E4E4E4" transform="translate(231,264)"/>
<path d="M0 0 C2.31 0 4.62 0 7 0 C7 1.65 7 3.3 7 5 C4.69 4.34 2.38 3.68 0 3 C0 2.01 0 1.02 0 0 Z " fill="#1D1D1D" transform="translate(359,451)"/>
<path d="M0 0 C2.27795022 2.27795022 3.05219877 3.93787293 4 7 C3.625 9.3125 3.625 9.3125 3 11 C3 10.01 3 9.02 3 8 C2.01 8.33 1.02 8.66 0 9 C0 7.35 0 5.7 0 4 C-0.66 3.67 -1.32 3.34 -2 3 C-1.34 3 -0.68 3 0 3 C0 2.01 0 1.02 0 0 Z " fill="#C6C6C6" transform="translate(425,291)"/>
<path d="M0 0 C2.625 0.375 2.625 0.375 5 1 C5 1.66 5 2.32 5 3 C5.66 3.33 6.32 3.66 7 4 C6.01 4.99 5.02 5.98 4 7 C3.566875 6.54625 3.13375 6.0925 2.6875 5.625 C0.89201658 3.79975666 0.89201658 3.79975666 -2 2 C-1.34 1.34 -0.68 0.68 0 0 Z " fill="#D4D4D4" transform="translate(368,220)"/>
<path d="M0 0 C3.01532925 1.00510975 4.18682851 1.46155991 6 4 C5.6875 6.6875 5.6875 6.6875 5 9 C2.33264727 6.51047079 0.44253657 4.36591866 -1 1 C-0.67 0.67 -0.34 0.34 0 0 Z " fill="#E2E2E2" transform="translate(409,218)"/>
<path d="M0 0 C2.475 0.99 2.475 0.99 5 2 C5 2.66 5 3.32 5 4 C4.34 4 3.68 4 3 4 C2.67 4.99 2.34 5.98 2 7 C0.68 6.67 -0.64 6.34 -2 6 C-1.34 5.01 -0.68 4.02 0 3 C0 2.01 0 1.02 0 0 Z " fill="#F6F6F6" transform="translate(283,163)"/>
<path d="M0 0 C0.66 0 1.32 0 2 0 C2.66 1.98 3.32 3.96 4 6 C3.401875 5.773125 2.80375 5.54625 2.1875 5.3125 C1.1046875 5.1578125 1.1046875 5.1578125 0 5 C-1.77190909 6.35444301 -1.77190909 6.35444301 -3 8 C-3 6.35 -3 4.7 -3 3 C-2.34 3 -1.68 3 -1 3 C-0.67 2.01 -0.34 1.02 0 0 Z " fill="#E1E1E1" transform="translate(331,153)"/>
<path d="M0 0 C1.98 0.66 3.96 1.32 6 2 C6 2.66 6 3.32 6 4 C3.36 4.66 0.72 5.32 -2 6 C-1.34 4.02 -0.68 2.04 0 0 Z " fill="#252525" transform="translate(441,520)"/>
<path d="M0 0 C-0.66 1.98 -1.32 3.96 -2 6 C-4.475 5.01 -4.475 5.01 -7 4 C-6.67 3.01 -6.34 2.02 -6 1 C-3.90006779 0.25486277 -2.22568901 0 0 0 Z " fill="#DCDCDC" transform="translate(416,515)"/>
<path d="M0 0 C0 0.66 0 1.32 0 2 C-2.31 2.66 -4.62 3.32 -7 4 C-7.66 3.34 -8.32 2.68 -9 2 C-8.34 2 -7.68 2 -7 2 C-7 1.34 -7 0.68 -7 0 C-3.86650268 -1.04449911 -3.01031744 -0.93423645 0 0 Z " fill="#0C0C0C" transform="translate(314,236)"/>
<path d="M0 0 C7.57142857 4 7.57142857 4 10 8 C6 8 6 8 4.25 6.625 C3 5 3 5 3 3 C2.01 2.67 1.02 2.34 0 2 C0 1.34 0 0.68 0 0 Z " fill="#D9D9D9" transform="translate(257,172)"/>
<path d="M0 0 C0.99 0.33 1.98 0.66 3 1 C4.6875 4.5625 4.6875 4.5625 6 8 C5.01 7.67 4.02 7.34 3 7 C3 6.34 3 5.68 3 5 C2.01 5.33 1.02 5.66 0 6 C-0.38218767 4.34385343 -0.71395102 2.67542976 -1 1 C-0.67 0.67 -0.34 0.34 0 0 Z " fill="#F5F5F5" transform="translate(286,173)"/>
<path d="M0 0 C0.66 0.66 1.32 1.32 2 2 C2.99 1.67 3.98 1.34 5 1 C5.33 1.66 5.66 2.32 6 3 C4.68 4.65 3.36 6.3 2 8 C0 5 0 5 -1 3 C-0.67 2.01 -0.34 1.02 0 0 Z " fill="#C8C8C8" transform="translate(332,144)"/>
<path d="M0 0 C3.56311466 1.78155733 5.35645475 3.16763009 8 6 C6.02 6.99 6.02 6.99 4 8 C2.68 5.36 1.36 2.72 0 0 Z " fill="#2E2E2E" transform="translate(363,110)"/>
<path d="M0 0 C0 0.99 0 1.98 0 3 C-0.33 3.33 -0.66 3.66 -1 4 C-0.34 4.66 0.32 5.32 1 6 C-1.31 6.33 -3.62 6.66 -6 7 C-6 6.01 -6 5.02 -6 4 C-3 1.8125 -3 1.8125 0 0 Z " fill="#2C2C2C" transform="translate(480,520)"/>
<path d="M0 0 C3.465 1.485 3.465 1.485 7 3 C6.67 3.99 6.34 4.98 6 6 C5.34 6 4.68 6 4 6 C4 5.34 4 4.68 4 4 C2.68 4.33 1.36 4.66 0 5 C-0.5625 3.0625 -0.5625 3.0625 -1 1 C-0.67 0.67 -0.34 0.34 0 0 Z " fill="#E5E5E5" transform="translate(466,502)"/>
<path d="M0 0 C1.32 0 2.64 0 4 0 C3.25 5.75 3.25 5.75 1 8 C0.40267181 5.23735711 0 2.83967231 0 0 Z " fill="#E5E5E5" transform="translate(136,501)"/>
<path d="M0 0 C1.32 0.33 2.64 0.66 4 1 C2.07423885 3.43929746 0.19909405 5.80090595 -2 8 C-2 7.01 -2 6.02 -2 5 C-2.66 4.67 -3.32 4.34 -4 4 C-3.67 3.34 -3.34 2.68 -3 2 C-2.34 2.33 -1.68 2.66 -1 3 C-0.67 2.01 -0.34 1.02 0 0 Z " fill="#161616" transform="translate(280,482)"/>
<path d="M0 0 C0.99 0 1.98 0 3 0 C2.67 1.98 2.34 3.96 2 6 C0.68 6.33 -0.64 6.66 -2 7 C-2.33 6.34 -2.66 5.68 -3 5 C-2.67 4.01 -2.34 3.02 -2 2 C-1.34 2 -0.68 2 0 2 C0 1.34 0 0.68 0 0 Z " fill="#F7F7F7" transform="translate(341,404)"/>
<path d="M0 0 C0.66 0 1.32 0 2 0 C2.66 2.64 3.32 5.28 4 8 C1.525 7.01 1.525 7.01 -1 6 C-0.67 4.02 -0.34 2.04 0 0 Z " fill="#D2D2D2" transform="translate(346,402)"/>
<path d="M0 0 C1.21346851 3.64040554 1.21346851 5.35959446 0 9 C-1.65 8.67 -3.3 8.34 -5 8 C-3.35 5.36 -1.7 2.72 0 0 Z " fill="#E1E1E1" transform="translate(366,387)"/>
<path d="M0 0 C1.485 0.99 1.485 0.99 3 2 C3.99 2.33 4.98 2.66 6 3 C4.35 4.32 2.7 5.64 1 7 C0.34 6.34 -0.32 5.68 -1 5 C-0.625 2.375 -0.625 2.375 0 0 Z " fill="#DDDDDD" transform="translate(217,274)"/>
<path d="M0 0 C0.33 0.66 0.66 1.32 1 2 C0.67 2.66 0.34 3.32 0 4 C-0.66 4 -1.32 4 -2 4 C-1.79375 4.78375 -1.5875 5.5675 -1.375 6.375 C-1.189375 7.674375 -1.189375 7.674375 -1 9 C-1.66 9.66 -2.32 10.32 -3 11 C-3 9.68 -3 8.36 -3 7 C-3.66 7 -4.32 7 -5 7 C-3.70700306 4.11562221 -2.34058637 2.12780579 0 0 Z " fill="#D6D6D6" transform="translate(274,267)"/>
<path d="M0 0 C0.8353125 0.556875 0.8353125 0.556875 1.6875 1.125 C1.0275 1.785 0.3675 2.445 -0.3125 3.125 C-1.3025 3.125 -2.2925 3.125 -3.3125 3.125 C-4.3025 3.455 -5.2925 3.785 -6.3125 4.125 C-6.6425 3.135 -6.9725 2.145 -7.3125 1.125 C-2.88173077 -1.09038462 -2.88173077 -1.09038462 0 0 Z " fill="#0B0B0B" transform="translate(303.3125,244.875)"/>
<path d="M0 0 C3.08089673 2.77280706 4.68775452 5.06326356 6 9 C5.01 9.33 4.02 9.66 3 10 C2.87625 9.030625 2.7525 8.06125 2.625 7.0625 C2.41875 6.051875 2.2125 5.04125 2 4 C1.34 3.67 0.68 3.34 0 3 C0 2.01 0 1.02 0 0 Z " fill="#DCDCDC" transform="translate(403,237)"/>
<path d="M0 0 C2.05078125 0.03255208 4.1015625 0.06510417 6.15234375 0.09765625 C6.48234375 0.75765625 6.81234375 1.41765625 7.15234375 2.09765625 C4.51234375 2.75765625 1.87234375 3.41765625 -0.84765625 4.09765625 C-1.50765625 3.10765625 -2.16765625 2.11765625 -2.84765625 1.09765625 C-1.84765625 0.09765625 -1.84765625 0.09765625 0 0 Z " fill="#D5D5D5" transform="translate(206.84765625,240.90234375)"/>
<path d="M0 0 C-2.6860286 1.79068573 -4.6626589 2.66055791 -7.6875 3.625 C-8.49574219 3.88539063 -9.30398438 4.14578125 -10.13671875 4.4140625 C-10.75160156 4.60742188 -11.36648438 4.80078125 -12 5 C-12 4.34 -12 3.68 -12 3 C-10.75823305 2.29773859 -9.50614401 1.61370891 -8.25 0.9375 C-7.20585937 0.36322266 -7.20585937 0.36322266 -6.140625 -0.22265625 C-3.63859372 -1.1312406 -2.4667645 -0.88336837 0 0 Z " fill="#B3B3B3" transform="translate(307,242)"/>
<path d="M0 0 C0.33 1.98 0.66 3.96 1 6 C-0.11375 5.5359375 -0.11375 5.5359375 -1.25 5.0625 C-3.50692176 4.1905075 -5.6450153 3.52332993 -8 3 C-2.25 0 -2.25 0 0 0 Z " fill="#E3E3E3" transform="translate(172,168)"/>
<path d="M0 0 C0.33 1.32 0.66 2.64 1 4 C1.66 4 2.32 4 3 4 C3 4.66 3 5.32 3 6 C0.5 7.625 0.5 7.625 -2 9 C-1.125 2.25 -1.125 2.25 0 0 Z " fill="#DCDCDC" transform="translate(353,162)"/>
<path d="M0 0 C1.65 0 3.3 0 5 0 C4.67 1.98 4.34 3.96 4 6 C2.68 6 1.36 6 0 6 C0 4.02 0 2.04 0 0 Z " fill="#F1F1F1" transform="translate(275,152)"/>
<path d="M0 0 C2.78211944 0.37596209 4.5879284 0.67318459 6.8125 2.4375 C8 4 8 4 8 6 C4.08597051 4.73058503 2.20927127 3.48832306 0 0 Z " fill="#DDDDDD" transform="translate(466,489)"/>
<path d="M0 0 C0.928125 0.20625 1.85625 0.4125 2.8125 0.625 C2.8125 1.285 2.8125 1.945 2.8125 2.625 C-0.10232778 3.43467438 -1.64863217 3.84345993 -4.5 2.6875 C-5.056875 2.336875 -5.61375 1.98625 -6.1875 1.625 C-3.1875 -0.375 -3.1875 -0.375 0 0 Z " fill="#DDDDDD" transform="translate(287.1875,483.375)"/>
<path d="M0 0 C0.99 0.99 1.98 1.98 3 3 C-0.3 3 -3.6 3 -7 3 C-7.33 2.34 -7.66 1.68 -8 1 C-5.20129973 -0.39935013 -3.09501208 -0.25265405 0 0 Z " fill="#2B2B2B" transform="translate(473,475)"/>
<path d="M0 0 C0.99 0.33 1.98 0.66 3 1 C3 1.66 3 2.32 3 3 C2.01 3.33 1.02 3.66 0 4 C-1.69882448 6.49759982 -1.69882448 6.49759982 -3 9 C-3.66 7.68 -4.32 6.36 -5 5 C-4.01 5 -3.02 5 -2 5 C-1.34 3.35 -0.68 1.7 0 0 Z " fill="#EBEBEB" transform="translate(158,449)"/>
<path d="M0 0 C8.57142857 -0.28571429 8.57142857 -0.28571429 12 2 C7.48281619 3.36884358 4.41225737 2.47075246 0 1 C0 0.67 0 0.34 0 0 Z " fill="#A9A9A9" transform="translate(252,91)"/>
<path d="M0 0 C0.99 0.33 1.98 0.66 3 1 C1.63016497 4.16115776 1.0109362 4.9927092 -2 7 C-2 2 -2 2 0 0 Z " fill="#DFDFDF" transform="translate(426,513)"/>
<path d="M0 0 C3.96 0 7.92 0 12 0 C12 0.33 12 0.66 12 1 C10.35 1 8.7 1 7 1 C7 1.66 7 2.32 7 3 C5.68 3 4.36 3 3 3 C3 2.34 3 1.68 3 1 C2.01 0.67 1.02 0.34 0 0 Z " fill="#1E1E1E" transform="translate(324,475)"/>
<path d="M0 0 C0.66 0.99 1.32 1.98 2 3 C1 5 1 5 -2 7 C-2.66 5.02 -3.32 3.04 -4 1 C-2.68 0.67 -1.36 0.34 0 0 Z " fill="#D0D0D0" transform="translate(336,330)"/>
<path d="M0 0 C0.66 0.33 1.32 0.66 2 1 C1.67 2.32 1.34 3.64 1 5 C-1.49064888 5.68707555 -3.37886292 6 -6 6 C-4.02 4.02 -2.04 2.04 0 0 Z " fill="#DCDCDC" transform="translate(280,312)"/>
<path d="M0 0 C1.32 0.66 2.64 1.32 4 2 C2.35 3.65 0.7 5.3 -1 7 C-1.625 5.1875 -1.625 5.1875 -2 3 C-1.34 2.01 -0.68 1.02 0 0 Z " fill="#DBDBDB" transform="translate(239,257)"/>
<path d="M0 0 C0 0.99 0 1.98 0 3 C-2.64 3 -5.28 3 -8 3 C-5.53387212 -0.1151089 -3.89156016 -0.31553191 0 0 Z " fill="#F3F3F3" transform="translate(251,249)"/>
<path d="M0 0 C-2.52788007 2.79872437 -4.20411134 4.45773019 -8 5 C-8 4.01 -8 3.02 -8 2 C-4.77208445 -0.1519437 -3.71599191 -0.20086443 0 0 Z " fill="#DFDFDF" transform="translate(191,182)"/>
<path d="M0 0 C0.99 1.32 1.98 2.64 3 4 C2.01 6.31 1.02 8.62 0 11 C-1.37432457 7.18243176 -0.67975039 3.92744671 0 0 Z " fill="#E5E5E5" transform="translate(335,159)"/>
<path d="M0 0 C1.32 1.32 2.64 2.64 4 4 C3.34 5.98 2.68 7.96 2 10 C1.67 10 1.34 10 1 10 C0.67 6.7 0.34 3.4 0 0 Z " fill="#404040" transform="translate(90,140)"/>
<path d="M0 0 C0.66 0.33 1.32 0.66 2 1 C1.67 1.66 1.34 2.32 1 3 C1.99 3.33 2.98 3.66 4 4 C4 4.66 4 5.32 4 6 C3.01 6.33 2.02 6.66 1 7 C1 6.01 1 5.02 1 4 C0.34 4 -0.32 4 -1 4 C-1.33 4.66 -1.66 5.32 -2 6 C-2 3 -2 3 0 0 Z " fill="#E9E9E9" transform="translate(163,138)"/>
<path d="M0 0 C3.36720387 1.39332574 4.9859524 2.9789286 7 6 C4 6 4 6 1.8125 4.125 C0 2 0 2 0 0 Z " fill="#DEDEDE" transform="translate(263,124)"/>
<path d="M0 0 C0.66 0 1.32 0 2 0 C1.67 1.65 1.34 3.3 1 5 C-0.32 5.33 -1.64 5.66 -3 6 C-2.42655063 3.13275314 -2.1385485 2.1385485 0 0 Z " fill="#F4F4F4" transform="translate(469,483)"/>
<path d="M0 0 C0.99 1.32 1.98 2.64 3 4 C2.67 4.66 2.34 5.32 2 6 C0.02 6 -1.96 6 -4 6 C-2.68 4.02 -1.36 2.04 0 0 Z " fill="#E2E2E2" transform="translate(164,286)"/>
<path d="M0 0 C0.99 0.99 1.98 1.98 3 3 C2.67 3.66 2.34 4.32 2 5 C2.66 5.33 3.32 5.66 4 6 C2.68 7.32 1.36 8.64 0 10 C0.33 7.69 0.66 5.38 1 3 C0.34 2.67 -0.32 2.34 -1 2 C-0.67 1.34 -0.34 0.68 0 0 Z " fill="#D8D8D8" transform="translate(260,282)"/>
<path d="M0 0 C0.33 0.66 0.66 1.32 1 2 C0.34 2 -0.32 2 -1 2 C-1 3.65 -1 5.3 -1 7 C-1.99 7.495 -1.99 7.495 -3 8 C-3.66 6.68 -4.32 5.36 -5 4 C-3.35 2.68 -1.7 1.36 0 0 Z " fill="#D7D7D7" transform="translate(324,264)"/>
<path d="M0 0 C2 1.375 2 1.375 4 3 C4 3.66 4 4.32 4 5 C1 6 1 6 -1.1875 5.0625 C-1.785625 4.711875 -2.38375 4.36125 -3 4 C-2.34 3.34 -1.68 2.68 -1 2 C-0.67 1.34 -0.34 0.68 0 0 Z " fill="#E4E4E4" transform="translate(398,233)"/>
<path d="M0 0 C2.31 0.33 4.62 0.66 7 1 C7 1.66 7 2.32 7 3 C4.69 3 2.38 3 0 3 C0 2.01 0 1.02 0 0 Z " fill="#F1F1F1" transform="translate(325,212)"/>
<path d="M0 0 C1.5 1.0625 1.5 1.0625 3 3 C3.1875 6.6875 3.1875 6.6875 3 10 C2.01 9.34 1.02 8.68 0 8 C-0.40843923 5.28796348 -0.13336867 2.7562858 0 0 Z " fill="#F6F6F6" transform="translate(266,132)"/>
<path d="M0 0 C1.9375 0.625 1.9375 0.625 4 2 C4.75 5.125 4.75 5.125 5 8 C4.01 8 3.02 8 2 8 C1.34 7.34 0.68 6.68 0 6 C0 4 0 2 0 0 Z " fill="#E1E1E1" transform="translate(276,95)"/>
<path d="M0 0 C1.52299523 2.93720508 2.80100302 5.9168649 4 9 C2.68 9 1.36 9 0 9 C-1.15941038 5.52176885 -0.70820884 3.54104422 0 0 Z " fill="#D7D7D7" transform="translate(149,86)"/>
<path d="M0 0 C0.6875 1.8125 0.6875 1.8125 1 4 C-0.4375 5.75 -0.4375 5.75 -2 7 C-2.66 6.67 -3.32 6.34 -4 6 C-2.84826645 3.53199953 -1.95216435 1.95216435 0 0 Z " fill="#E3E3E3" transform="translate(236,518)"/>
<path d="M0 0 C1.32 0.33 2.64 0.66 4 1 C3.67 1.66 3.34 2.32 3 3 C4.65 3 6.3 3 8 3 C8 3.33 8 3.66 8 4 C5.36 4 2.72 4 0 4 C0 2.68 0 1.36 0 0 Z " fill="#E8E8E8" transform="translate(315,491)"/>
<path d="M0 0 C2 2 2 2 2 6 C0.35 6 -1.3 6 -3 6 C-1.125 1.125 -1.125 1.125 0 0 Z " fill="#D8D7DD" transform="translate(163,482)"/>
<path d="M0 0 C2.31 0 4.62 0 7 0 C6.67 0.99 6.34 1.98 6 3 C3.69 2.67 1.38 2.34 -1 2 C-0.67 1.34 -0.34 0.68 0 0 Z " fill="#090909" transform="translate(473,475)"/>
<path d="M0 0 C0.99 0 1.98 0 3 0 C1.60667426 3.36720387 0.0210714 4.9859524 -3 7 C-1.125 1.125 -1.125 1.125 0 0 Z " fill="#222222" transform="translate(361,390)"/>
<path d="M0 0 C0.99 0 1.98 0 3 0 C2.34 2.31 1.68 4.62 1 7 C0.67 6.34 0.34 5.68 0 5 C-0.66 4.67 -1.32 4.34 -2 4 C-1.34 2.68 -0.68 1.36 0 0 Z " fill="#DFDFDF" transform="translate(291,360)"/>
<path d="M0 0 C1.98 0 3.96 0 6 0 C6.66 1.32 7.32 2.64 8 4 C4.09161134 4 2.88405893 2.49432124 0 0 Z " fill="#E1E1E1" transform="translate(359,315)"/>
<path d="M0 0 C-2.3773161 2.3773161 -3.70285207 2.67028521 -7 3 C-7.66 2.34 -8.32 1.68 -9 1 C-5.57367167 -0.61798838 -3.61944899 -1.34053666 0 0 Z " fill="#A7A7A7" transform="translate(305,253)"/>
<path d="M0 0 C3.465 1.98 3.465 1.98 7 4 C5.02 4.99 5.02 4.99 3 6 C0.8614515 3.8614515 0.57344937 2.86724686 0 0 Z " fill="#1B1B1B" transform="translate(257,178)"/>
<path d="M0 0 C0.99 0.99 1.98 1.98 3 3 C1.68 3.99 0.36 4.98 -1 6 C-1.33 5.34 -1.66 4.68 -2 4 C-2.99 4 -3.98 4 -5 4 C-5 3.34 -5 2.68 -5 2 C-3.35 2 -1.7 2 0 2 C0 1.34 0 0.68 0 0 Z " fill="#E7E7E7" transform="translate(359,520)"/>
<path d="M0 0 C0.66 0.99 1.32 1.98 2 3 C1.01 3.66 0.02 4.32 -1 5 C-1.99 4.34 -2.98 3.68 -4 3 C-3 1 -3 1 0 0 Z " fill="#DFDFDF" transform="translate(284,474)"/>
<path d="M0 0 C1.98 0 3.96 0 6 0 C6.33 1.65 6.66 3.3 7 5 C3.535 3.02 3.535 3.02 0 1 C0 0.67 0 0.34 0 0 Z " fill="#E2E2E2" transform="translate(350,309)"/>
<path d="M0 0 C1.67542976 0.28604898 3.34385343 0.61781233 5 1 C5 1.99 5 2.98 5 4 C2.13275314 3.42655063 1.1385485 3.1385485 -1 1 C-0.67 0.67 -0.34 0.34 0 0 Z " fill="#DEDEDE" transform="translate(406,273)"/>
<path d="M0 0 C-0.33 0.66 -0.66 1.32 -1 2 C-4.3 1.67 -7.6 1.34 -11 1 C-11 0.67 -11 0.34 -11 0 C-3.57142857 -1.28571429 -3.57142857 -1.28571429 0 0 Z " fill="#B8B8B8" transform="translate(357,218)"/>
<path d="M0 0 C0.66 0 1.32 0 2 0 C2.33 1.32 2.66 2.64 3 4 C2.34 4 1.68 4 1 4 C0.67 4.99 0.34 5.98 0 7 C-0.66 6.01 -1.32 5.02 -2 4 C-1.34 2.68 -0.68 1.36 0 0 Z " fill="#F0F0F0" transform="translate(366,179)"/>
<path d="M0 0 C0.66 0.99 1.32 1.98 2 3 C1.125 5.6875 1.125 5.6875 0 8 C-1.125 6.25 -1.125 6.25 -2 4 C-1.125 1.75 -1.125 1.75 0 0 Z " fill="#D9D9D9" transform="translate(356,156)"/>
<path d="M0 0 C1.32 0.66 2.64 1.32 4 2 C3.67 2.99 3.34 3.98 3 5 C1.35 4.67 -0.3 4.34 -2 4 C-1.34 2.68 -0.68 1.36 0 0 Z " fill="#F7F7F7" transform="translate(331,157)"/>
<path d="M0 0 C2.31 0 4.62 0 7 0 C7.33 0.66 7.66 1.32 8 2 C5.36 2.66 2.72 3.32 0 4 C0 2.68 0 1.36 0 0 Z " fill="#DEDEDE" transform="translate(187,129)"/>
<path d="M0 0 C0.99 0 1.98 0 3 0 C3 0.66 3 1.32 3 2 C3.66 2.33 4.32 2.66 5 3 C4.34 3.66 3.68 4.32 3 5 C0.875 4.625 0.875 4.625 -1 4 C-0.34 3.67 0.32 3.34 1 3 C0.67 2.01 0.34 1.02 0 0 Z " fill="#0A0A0A" transform="translate(324,84)"/>
<path d="M0 0 C1.32 0.33 2.64 0.66 4 1 C4.33 2.32 4.66 3.64 5 5 C4.01 5 3.02 5 2 5 C1.34 3.35 0.68 1.7 0 0 Z " fill="#DDDDDD" transform="translate(154,80)"/>
</svg>
